<svg viewBox="0 0 40 40" fill="none" xmlns="http://www.w3.org/2000/svg">
	<path d="M20.9174 31.1538C24.6197 33.3219 27.1097 34.0192 32.7532 35.3291C35.1287 35.8804 37.5614 36.1537 40 36.1537C37.0835 36.6632 34.0981 36.7198 31.1775 36.2344C28.933 35.8615 27.5333 35.5563 25.4106 34.9641C21.999 34.0123 18.6506 32.7704 15.6154 30.9449C11.9534 28.7425 8.90024 26.1557 4.15651 21.1538C3.4947 20.2415 2.90607 19.3845 2.39488 18.5494C-1.26531 12.57 0.117471 3.97934 6.66275 1.46728C10.6493 -0.0627556 16.1063 -0.0879745 20.3109 0.657005C25.7589 1.62229 30.9447 3.99783 34.5201 8.22027C34.8605 8.62224 35.2116 9.07769 35.5963 9.61533C30.4769 6.11564 24.5672 3.58891 18.3725 3.30394C16.9964 3.24063 15.5004 3.28543 13.6978 3.4615C7.12492 5.02624 3.25737 12.7544 6.34301 18.7652C6.73361 19.5261 7.2239 20.3113 7.82622 21.1538C11.8313 25.8234 15.1165 27.7566 20.9174 31.1538Z" fill="#3BA6CA" stroke="#3BA6CA" stroke-width="0.3"/>
	<path d="M39.1384 3.09935L39.2661 3.07705L38.0038 3.077C35.91 3.07694 33.8127 3.13043 31.7496 3.48733C29.2262 3.92386 25.3843 4.80288 21.0372 6.53862C14.8079 9.6098 11.4805 11.8976 4.89045 18.8463C4.22865 19.7586 3.64002 20.6155 3.12883 21.4506C-0.531366 27.4301 0.795676 35.959 7.32745 38.506C11.3852 40.0882 16.6501 40.1068 20.9412 39.3612C23.4946 38.9176 25.7987 38.1947 28.7436 36.9232C33.9881 34.3895 35.9105 33.3499 39.2661 30.0001C38.5822 30.4676 37.9557 30.8712 37.3593 31.232C31.912 34.5272 25.6656 36.7237 19.2994 36.7864C17.8345 36.8008 16.2669 36.7178 14.4317 36.5386C7.85887 34.9738 3.99132 27.2456 7.07696 21.2348C7.46755 20.474 7.95785 19.6888 8.56017 18.8463C12.5653 14.1766 15.2363 11.8588 21.0372 8.4617C24.4981 6.43494 27.9895 5.27814 30.5979 4.62952C33.4048 3.93152 36.2891 3.59706 39.1384 3.09935Z" fill="#636363" stroke="#636363" stroke-width="0.3"/>
	<path d="M25.8126 27.879C24.6993 27.879 23.7195 27.7716 22.8732 27.5568C22.0333 27.3419 21.2521 27.075 20.5294 26.756V23.299H20.8614C21.5906 23.9174 22.3946 24.3927 23.2735 24.7247C24.1525 25.0568 25.0053 25.2228 25.8321 25.2228C26.0405 25.2228 26.3139 25.2 26.6525 25.1544C26.9975 25.1088 27.2742 25.0372 27.4825 24.9396C27.7364 24.8289 27.9513 24.6759 28.1271 24.4806C28.3028 24.2788 28.3907 24.0151 28.3907 23.6896C28.3907 23.325 28.2475 23.0288 27.961 22.8009C27.6746 22.573 27.3328 22.407 26.9357 22.3029C26.4409 22.1726 25.9103 22.049 25.3439 21.9318C24.784 21.8146 24.2599 21.6713 23.7716 21.5021C22.6453 21.1049 21.838 20.5711 21.3497 19.9005C20.8614 19.2299 20.6173 18.3901 20.6173 17.381C20.6173 16.0203 21.1935 14.92 22.3458 14.0802C23.4982 13.2338 24.937 12.8107 26.6622 12.8107C27.5281 12.8107 28.3875 12.8986 29.2403 13.0743C30.0997 13.2501 30.8679 13.4878 31.545 13.7872V17.1075H31.2228C30.6824 16.6453 30.0216 16.2547 29.2403 15.9357C28.4656 15.6167 27.6681 15.4572 26.8478 15.4572C26.5288 15.4572 26.2423 15.4799 25.9884 15.5255C25.7345 15.5711 25.4676 15.659 25.1876 15.7892C24.9597 15.8934 24.7612 16.0496 24.5919 16.2579C24.4291 16.4598 24.3478 16.6876 24.3478 16.9415C24.3478 17.3126 24.478 17.6088 24.7384 17.8302C25.0053 18.045 25.5164 18.2404 26.2716 18.4161C26.7599 18.5268 27.2286 18.6342 27.6778 18.7384C28.1336 18.8426 28.6186 18.9858 29.1329 19.1681C30.142 19.5327 30.8907 20.0242 31.379 20.6427C31.8738 21.2547 32.1212 22.0652 32.1212 23.0743C32.1212 24.5197 31.5515 25.6818 30.4122 26.5607C29.2794 27.4396 27.7462 27.879 25.8126 27.879Z" fill="#636363"/>
</svg>
