<svg viewBox="0 0 100 20" fill="none" xmlns="http://www.w3.org/2000/svg">
	<rect width="100" height="20" rx="5" fill="#BFFBFF"/>
	<path d="M19.0703 12.4297C19.0703 13.0078 18.9609 13.5182 18.7422 13.9609C18.5234 14.4036 18.2292 14.7682 17.8594 15.0547C17.4219 15.3984 16.9531 15.6432 16.4531 15.7891C15.9531 15.9297 15.3073 16 14.5156 16H11.1797V4.36719H14.2656C15.0938 4.36719 15.7135 4.39583 16.125 4.45312C16.5417 4.50521 16.9401 4.63281 17.3203 4.83594C17.737 5.0599 18.0417 5.35417 18.2344 5.71875C18.4271 6.07812 18.5234 6.5026 18.5234 6.99219C18.5234 7.53906 18.3776 8.02865 18.0859 8.46094C17.7995 8.89323 17.401 9.23177 16.8906 9.47656V9.53906C17.5833 9.72656 18.1198 10.0703 18.5 10.5703C18.8802 11.0651 19.0703 11.6849 19.0703 12.4297ZM16.9141 7.21094C16.9141 6.92969 16.8672 6.6875 16.7734 6.48438C16.6797 6.27604 16.5286 6.11198 16.3203 5.99219C16.0703 5.85156 15.7917 5.76562 15.4844 5.73438C15.1771 5.70312 14.7526 5.6875 14.2109 5.6875H12.7266V9.09375H14.4844C14.9688 9.09375 15.3255 9.07031 15.5547 9.02344C15.7839 8.97135 16.0208 8.86719 16.2656 8.71094C16.5 8.5599 16.6667 8.36198 16.7656 8.11719C16.8646 7.8724 16.9141 7.57031 16.9141 7.21094ZM17.4609 12.4922C17.4609 12.0547 17.3984 11.6953 17.2734 11.4141C17.1484 11.1276 16.8958 10.8854 16.5156 10.6875C16.2708 10.5573 16.0026 10.474 15.7109 10.4375C15.4245 10.401 15.0156 10.3828 14.4844 10.3828H12.7266V14.6797H13.9844C14.6615 14.6797 15.1953 14.6484 15.5859 14.5859C15.9766 14.5234 16.3203 14.3906 16.6172 14.1875C16.9089 13.9844 17.1224 13.7552 17.2578 13.5C17.3932 13.2396 17.4609 12.9036 17.4609 12.4922ZM27.3906 16H25.9375V9.49219L21.8281 16H20.5V7.27344H21.9531V13.6797L26.0156 7.27344H27.3906V16ZM36.5391 16H34.7109L31.7188 11.9766H30.9844V16H29.5156V7.27344H30.9844V11.0703C31.3646 11.0651 31.6875 10.987 31.9531 10.8359C32.224 10.6797 32.4531 10.3802 32.6406 9.9375C32.6979 9.80729 32.7604 9.65625 32.8281 9.48438C32.901 9.3125 32.9583 9.16146 33 9.03125C33.2292 8.39062 33.5469 7.9375 33.9531 7.67188C34.3594 7.40625 34.888 7.27344 35.5391 7.27344H35.9375V8.53906H35.6016C35.1901 8.53906 34.8802 8.625 34.6719 8.79688C34.4688 8.96354 34.2969 9.27083 34.1562 9.71875C34.0104 10.1719 33.8385 10.526 33.6406 10.7812C33.4427 11.0312 33.224 11.224 32.9844 11.3594L36.5391 16ZM44.6641 11.6406C44.6641 13.1094 44.3099 14.2448 43.6016 15.0469C42.8932 15.8438 41.9505 16.2422 40.7734 16.2422C39.5599 16.2422 38.6042 15.8307 37.9062 15.0078C37.2135 14.1797 36.8672 13.0573 36.8672 11.6406C36.8672 10.1823 37.224 9.04948 37.9375 8.24219C38.6562 7.4349 39.6016 7.03125 40.7734 7.03125C41.9505 7.03125 42.8932 7.4349 43.6016 8.24219C44.3099 9.04427 44.6641 10.1771 44.6641 11.6406ZM43.1484 11.6406C43.1484 10.5104 42.9427 9.67188 42.5312 9.125C42.1198 8.57292 41.5339 8.29688 40.7734 8.29688C40.0078 8.29688 39.4167 8.57292 39 9.125C38.5885 9.67188 38.3828 10.5104 38.3828 11.6406C38.3828 12.7344 38.5885 13.5651 39 14.1328C39.4167 14.6953 40.0078 14.9766 40.7734 14.9766C41.5286 14.9766 42.112 14.7005 42.5234 14.1484C42.9401 13.5911 43.1484 12.7552 43.1484 11.6406ZM53.0625 16H51.5938V12.0703H47.6406V16H46.1719V7.27344H47.6406V10.8047H51.5938V7.27344H53.0625V16ZM60.0625 13.8516V11.4297C59.7135 11.4609 59.2708 11.5052 58.7344 11.5625C58.2031 11.6146 57.7734 11.6901 57.4453 11.7891C57.0547 11.9089 56.7318 12.0938 56.4766 12.3438C56.2214 12.5885 56.0938 12.9323 56.0938 13.375C56.0938 13.875 56.2344 14.2526 56.5156 14.5078C56.7969 14.763 57.2083 14.8906 57.75 14.8906C58.2135 14.8906 58.6328 14.7917 59.0078 14.5938C59.3828 14.3906 59.7344 14.1432 60.0625 13.8516ZM60.0625 15.0703C59.9427 15.1589 59.7812 15.2839 59.5781 15.4453C59.3802 15.6016 59.1875 15.7266 59 15.8203C58.7396 15.9557 58.487 16.0599 58.2422 16.1328C58.0026 16.2057 57.6641 16.2422 57.2266 16.2422C56.8672 16.2422 56.526 16.1745 56.2031 16.0391C55.8802 15.9036 55.5964 15.7135 55.3516 15.4688C55.1172 15.2292 54.9297 14.9349 54.7891 14.5859C54.6484 14.2318 54.5781 13.8594 54.5781 13.4688C54.5781 12.8646 54.7057 12.3516 54.9609 11.9297C55.2161 11.5026 55.6198 11.1641 56.1719 10.9141C56.6615 10.6901 57.2396 10.5365 57.9062 10.4531C58.5729 10.3646 59.2917 10.2995 60.0625 10.2578V9.97656C60.0625 9.63281 60.0104 9.35677 59.9062 9.14844C59.8021 8.9349 59.6562 8.77083 59.4688 8.65625C59.2812 8.53646 59.0521 8.45833 58.7812 8.42188C58.5104 8.38021 58.2318 8.35938 57.9453 8.35938C57.6068 8.35938 57.2083 8.41146 56.75 8.51562C56.2917 8.61458 55.8333 8.76042 55.375 8.95312H55.2891V7.46094C55.5599 7.38281 55.9479 7.29688 56.4531 7.20312C56.9583 7.10938 57.4583 7.0625 57.9531 7.0625C58.5521 7.0625 59.0573 7.10938 59.4688 7.20312C59.8802 7.29688 60.25 7.46615 60.5781 7.71094C60.8958 7.95052 61.1328 8.26042 61.2891 8.64062C61.4453 9.02083 61.5234 9.48438 61.5234 10.0312V16H60.0625V15.0703ZM70.4844 16H69.0156V12.0703H65.0625V16H63.5938V7.27344H65.0625V10.8047H69.0156V7.27344H70.4844V16ZM79.5 16H78.0312V12.0703H74.0781V16H72.6094V7.27344H74.0781V10.8047H78.0312V7.27344H79.5V16ZM87.9453 16H86.4766V12.5391H85.0234L82.4375 16H80.7266L83.5312 12.4062C82.8073 12.1927 82.276 11.875 81.9375 11.4531C81.6042 11.0312 81.4375 10.4661 81.4375 9.75781C81.4375 9.32552 81.5312 8.94792 81.7188 8.625C81.9115 8.29688 82.1693 8.02083 82.4922 7.79688C82.7526 7.61979 83.0807 7.48958 83.4766 7.40625C83.8724 7.31771 84.3151 7.27344 84.8047 7.27344H87.9453V16ZM86.4766 11.3828V8.44531H84.8828C84.5443 8.44531 84.276 8.46354 84.0781 8.5C83.8854 8.53646 83.6979 8.60677 83.5156 8.71094C83.3281 8.82552 83.1849 8.98177 83.0859 9.17969C82.9922 9.3724 82.9453 9.58073 82.9453 9.80469C82.9453 10.0911 82.9766 10.3255 83.0391 10.5078C83.1068 10.6849 83.2266 10.849 83.3984 11C83.5807 11.1562 83.8021 11.2604 84.0625 11.3125C84.3281 11.3594 84.6172 11.3828 84.9297 11.3828H86.4766Z" fill="#00E4F2"/>
</svg>
