<svg width="491" height="37" viewBox="0 0 491 37" fill="none" xmlns="http://www.w3.org/2000/svg">
<path d="M389.655 13.9834C389.655 14.6338 389.532 15.208 389.286 15.7061C389.04 16.2041 388.709 16.6143 388.293 16.9365C387.801 17.3232 387.273 17.5986 386.711 17.7627C386.148 17.9209 385.422 18 384.531 18H380.778V4.91309H384.25C385.182 4.91309 385.879 4.94531 386.342 5.00977C386.811 5.06836 387.259 5.21191 387.687 5.44043C388.155 5.69238 388.498 6.02344 388.715 6.43359C388.932 6.83789 389.04 7.31543 389.04 7.86621C389.04 8.48145 388.876 9.03223 388.548 9.51855C388.226 10.0049 387.777 10.3857 387.203 10.6611V10.7314C387.982 10.9424 388.586 11.3291 389.014 11.8916C389.441 12.4482 389.655 13.1455 389.655 13.9834ZM387.229 8.1123C387.229 7.7959 387.177 7.52344 387.071 7.29492C386.966 7.06055 386.796 6.87598 386.562 6.74121C386.28 6.58301 385.967 6.48633 385.621 6.45117C385.275 6.41602 384.798 6.39844 384.188 6.39844H382.519V10.2305H384.496C385.041 10.2305 385.442 10.2041 385.7 10.1514C385.958 10.0928 386.225 9.97559 386.5 9.7998C386.764 9.62988 386.951 9.40723 387.062 9.13184C387.174 8.85645 387.229 8.5166 387.229 8.1123ZM387.845 14.0537C387.845 13.5615 387.774 13.1572 387.634 12.8408C387.493 12.5186 387.209 12.2461 386.781 12.0234C386.506 11.877 386.204 11.7832 385.876 11.7422C385.554 11.7012 385.094 11.6807 384.496 11.6807H382.519V16.5146H383.934C384.695 16.5146 385.296 16.4795 385.735 16.4092C386.175 16.3389 386.562 16.1895 386.896 15.9609C387.224 15.7324 387.464 15.4746 387.616 15.1875C387.769 14.8945 387.845 14.5166 387.845 14.0537ZM399.016 18H397.381V10.6787L392.758 18H391.264V8.18262H392.898V15.3896L397.469 8.18262H399.016V18ZM405.309 18.2197C404.635 18.2197 404.017 18.1172 403.454 17.9121C402.892 17.7012 402.408 17.3848 402.004 16.9629C401.6 16.541 401.286 16.0107 401.063 15.3721C400.841 14.7275 400.729 13.9717 400.729 13.1045C400.729 12.2432 400.844 11.499 401.072 10.8721C401.307 10.2451 401.617 9.71777 402.004 9.29004C402.391 8.8623 402.871 8.53418 403.445 8.30566C404.025 8.07129 404.646 7.9541 405.309 7.9541C405.848 7.9541 406.366 8.03027 406.864 8.18262C407.368 8.33496 407.816 8.51074 408.209 8.70996V10.5645H408.112C407.995 10.4648 407.843 10.3506 407.655 10.2217C407.474 10.0928 407.251 9.96094 406.987 9.82617C406.759 9.70898 406.489 9.60645 406.179 9.51855C405.868 9.43066 405.569 9.38672 405.282 9.38672C404.427 9.38672 403.738 9.71191 403.217 10.3623C402.701 11.0068 402.443 11.9209 402.443 13.1045C402.443 14.2646 402.692 15.1699 403.19 15.8203C403.694 16.4648 404.392 16.7871 405.282 16.7871C405.821 16.7871 406.334 16.6758 406.82 16.4531C407.307 16.2305 407.737 15.9434 408.112 15.5918H408.209V17.4463C408.045 17.5225 407.84 17.6162 407.594 17.7275C407.348 17.833 407.125 17.9121 406.926 17.9648C406.645 18.0469 406.393 18.1084 406.17 18.1494C405.947 18.1963 405.66 18.2197 405.309 18.2197ZM417.798 13.0957C417.798 14.748 417.399 16.0254 416.603 16.9277C415.806 17.8242 414.745 18.2725 413.421 18.2725C412.056 18.2725 410.98 17.8096 410.195 16.8838C409.416 15.9521 409.026 14.6895 409.026 13.0957C409.026 11.4551 409.428 10.1807 410.23 9.27246C411.039 8.36426 412.103 7.91016 413.421 7.91016C414.745 7.91016 415.806 8.36426 416.603 9.27246C417.399 10.1748 417.798 11.4492 417.798 13.0957ZM416.093 13.0957C416.093 11.8242 415.861 10.8809 415.398 10.2656C414.936 9.64453 414.276 9.33398 413.421 9.33398C412.56 9.33398 411.895 9.64453 411.426 10.2656C410.963 10.8809 410.731 11.8242 410.731 13.0957C410.731 14.3262 410.963 15.2607 411.426 15.8994C411.895 16.5322 412.56 16.8486 413.421 16.8486C414.271 16.8486 414.927 16.5381 415.39 15.917C415.858 15.29 416.093 14.3496 416.093 13.0957ZM427.396 18H425.339L421.973 13.4736H421.146V18H419.494V8.18262H421.146V12.4541C421.574 12.4482 421.938 12.3604 422.236 12.1904C422.541 12.0146 422.799 11.6777 423.01 11.1797C423.074 11.0332 423.145 10.8633 423.221 10.6699C423.303 10.4766 423.367 10.3066 423.414 10.1602C423.672 9.43945 424.029 8.92969 424.486 8.63086C424.943 8.33203 425.538 8.18262 426.271 8.18262H426.719V9.60645H426.341C425.878 9.60645 425.529 9.70312 425.295 9.89648C425.066 10.084 424.873 10.4297 424.715 10.9336C424.551 11.4434 424.357 11.8418 424.135 12.1289C423.912 12.4102 423.666 12.627 423.396 12.7793L427.396 18ZM436.211 18H434.576V10.6787L429.953 18H428.459V8.18262H430.094V15.3896L434.664 8.18262H436.211V18ZM446.354 18H444.719V10.6787L440.096 18H438.602V8.18262H440.236V15.3896L444.807 8.18262H446.354V18ZM445.615 3.62109C445.615 4.125 445.554 4.58496 445.431 5.00098C445.308 5.41113 445.132 5.75684 444.903 6.03809C444.64 6.34863 444.341 6.58301 444.007 6.74121C443.673 6.89355 443.245 6.96973 442.724 6.96973C442.243 6.96973 441.821 6.89062 441.458 6.73242C441.101 6.56836 440.799 6.33691 440.553 6.03809C440.312 5.74512 440.131 5.39355 440.008 4.9834C439.885 4.57324 439.823 4.11914 439.823 3.62109H441.247C441.247 4.41211 441.37 4.9834 441.616 5.33496C441.862 5.68066 442.231 5.85352 442.724 5.85352C443.187 5.85352 443.547 5.68359 443.805 5.34375C444.062 4.99805 444.191 4.42383 444.191 3.62109H445.615Z" fill="#E1E2F3"/>
<path d="M209.369 18.2549C207.406 18.2549 205.848 17.6631 204.693 16.4795C203.539 15.29 202.962 13.6201 202.962 11.4697C202.962 9.39551 203.539 7.74316 204.693 6.5127C205.854 5.27637 207.415 4.6582 209.378 4.6582C209.899 4.6582 210.368 4.6875 210.784 4.74609C211.2 4.80469 211.599 4.88672 211.979 4.99219C212.278 5.08008 212.604 5.2002 212.955 5.35254C213.307 5.50488 213.591 5.63672 213.808 5.74805V8.86816H213.474C213.315 8.72754 213.116 8.56055 212.876 8.36719C212.636 8.16797 212.363 7.97461 212.059 7.78711C211.754 7.59961 211.417 7.44141 211.048 7.3125C210.685 7.17773 210.304 7.11035 209.905 7.11035C209.431 7.11035 208.994 7.18652 208.596 7.33887C208.203 7.48535 207.828 7.74316 207.471 8.1123C207.143 8.44629 206.873 8.89746 206.662 9.46582C206.457 10.0342 206.354 10.7051 206.354 11.4785C206.354 12.293 206.463 12.9785 206.68 13.5352C206.896 14.0859 207.181 14.5312 207.532 14.8711C207.872 15.1992 208.25 15.4365 208.666 15.583C209.088 15.7295 209.507 15.8027 209.923 15.8027C210.356 15.8027 210.77 15.7324 211.162 15.5918C211.555 15.4453 211.886 15.2842 212.155 15.1084C212.448 14.9268 212.706 14.7422 212.929 14.5547C213.151 14.3672 213.345 14.2002 213.509 14.0537H213.808V17.1299C213.567 17.2412 213.289 17.3701 212.973 17.5166C212.656 17.6572 212.331 17.7773 211.997 17.877C211.587 18 211.203 18.0938 210.846 18.1582C210.488 18.2227 209.996 18.2549 209.369 18.2549ZM220.628 18.2637C218.765 18.2637 217.335 17.8184 216.339 16.9277C215.349 16.0371 214.854 14.7686 214.854 13.1221C214.854 11.5107 215.316 10.2246 216.242 9.26367C217.168 8.30273 218.463 7.82227 220.127 7.82227C221.639 7.82227 222.775 8.22949 223.537 9.04395C224.299 9.8584 224.68 11.0244 224.68 12.542V13.6494H217.938C217.968 14.1064 218.064 14.4902 218.229 14.8008C218.393 15.1055 218.609 15.3486 218.879 15.5303C219.143 15.7119 219.45 15.8438 219.802 15.9258C220.153 16.002 220.537 16.04 220.953 16.04C221.311 16.04 221.662 16.002 222.008 15.9258C222.354 15.8438 222.67 15.7383 222.957 15.6094C223.209 15.498 223.44 15.3779 223.651 15.249C223.868 15.1201 224.044 15.0059 224.179 14.9062H224.504V17.4463C224.252 17.5459 224.021 17.6396 223.81 17.7275C223.604 17.8096 223.32 17.8945 222.957 17.9824C222.623 18.0703 222.277 18.1377 221.92 18.1846C221.568 18.2373 221.138 18.2637 220.628 18.2637ZM221.647 11.7949C221.63 11.1445 221.478 10.6494 221.19 10.3096C220.909 9.96973 220.476 9.7998 219.89 9.7998C219.292 9.7998 218.823 9.97852 218.483 10.3359C218.149 10.6934 217.965 11.1797 217.93 11.7949H221.647ZM235.938 12.9287C235.938 14.5049 235.537 15.7764 234.734 16.7432C233.938 17.71 232.953 18.1934 231.781 18.1934C231.289 18.1934 230.861 18.1377 230.498 18.0264C230.135 17.915 229.748 17.7422 229.338 17.5078V21.6211H226.262V8.12988H229.338V9.1582C229.789 8.77148 230.249 8.45801 230.718 8.21777C231.187 7.97754 231.729 7.85742 232.344 7.85742C233.486 7.85742 234.371 8.31152 234.998 9.21973C235.625 10.1279 235.938 11.3643 235.938 12.9287ZM232.792 12.9902C232.792 12.0293 232.643 11.332 232.344 10.8984C232.051 10.4648 231.591 10.248 230.964 10.248C230.688 10.248 230.413 10.292 230.138 10.3799C229.868 10.4678 229.602 10.5996 229.338 10.7754V15.7412C229.502 15.8115 229.681 15.8613 229.874 15.8906C230.073 15.9199 230.308 15.9346 230.577 15.9346C231.327 15.9346 231.884 15.6914 232.247 15.2051C232.61 14.7129 232.792 13.9746 232.792 12.9902ZM242.653 18.2637C240.79 18.2637 239.36 17.8184 238.364 16.9277C237.374 16.0371 236.879 14.7686 236.879 13.1221C236.879 11.5107 237.342 10.2246 238.268 9.26367C239.193 8.30273 240.488 7.82227 242.152 7.82227C243.664 7.82227 244.801 8.22949 245.562 9.04395C246.324 9.8584 246.705 11.0244 246.705 12.542V13.6494H239.964C239.993 14.1064 240.09 14.4902 240.254 14.8008C240.418 15.1055 240.635 15.3486 240.904 15.5303C241.168 15.7119 241.476 15.8438 241.827 15.9258C242.179 16.002 242.562 16.04 242.979 16.04C243.336 16.04 243.688 16.002 244.033 15.9258C244.379 15.8438 244.695 15.7383 244.982 15.6094C245.234 15.498 245.466 15.3779 245.677 15.249C245.894 15.1201 246.069 15.0059 246.204 14.9062H246.529V17.4463C246.277 17.5459 246.046 17.6396 245.835 17.7275C245.63 17.8096 245.346 17.8945 244.982 17.9824C244.648 18.0703 244.303 18.1377 243.945 18.1846C243.594 18.2373 243.163 18.2637 242.653 18.2637ZM243.673 11.7949C243.655 11.1445 243.503 10.6494 243.216 10.3096C242.935 9.96973 242.501 9.7998 241.915 9.7998C241.317 9.7998 240.849 9.97852 240.509 10.3359C240.175 10.6934 239.99 11.1797 239.955 11.7949H243.673ZM258.368 20.4434H255.635V17.9648H249.922V20.4434H247.188V15.7852H247.9C248.346 14.8594 248.7 13.7285 248.964 12.3926C249.233 11.0566 249.368 9.63574 249.368 8.12988H257.393V15.7852H258.368V20.4434ZM254.334 15.7852V10.3008H252.163C252.063 11.3965 251.894 12.4131 251.653 13.3506C251.419 14.2822 251.135 15.0938 250.801 15.7852H254.334ZM269.275 18H266.199V13.7725H263.018V18H259.941V8.12988H263.018V11.5488H266.199V8.12988H269.275V18ZM274.707 18H271.631V8.12988H274.707V18ZM274.795 6.72363H271.543V4.32422H274.795V6.72363ZM286.44 18H283.417V12.0059L279.638 18H277.062V8.12988H280.086V13.4912L283.549 8.12988H286.44V18ZM285.623 3.75293C285.623 4.70801 285.304 5.48438 284.665 6.08203C284.026 6.67969 283.065 6.97852 281.782 6.97852C280.499 6.97852 279.538 6.67969 278.899 6.08203C278.261 5.47852 277.941 4.70215 277.941 3.75293H280.341C280.353 4.33301 280.464 4.76953 280.675 5.0625C280.886 5.34961 281.255 5.49316 281.782 5.49316C282.31 5.49316 282.679 5.34961 282.89 5.0625C283.101 4.77539 283.212 4.33887 283.224 3.75293H285.623Z" fill="#FAD200"/>
<path d="M53.9189 18H52.1787V11.5928H46.1582V18H44.418V4.91309H46.1582V10.0459H52.1787V4.91309H53.9189V18ZM64.2021 18H62.5674V10.6787L57.9443 18H56.4502V8.18262H58.085V15.3896L62.6553 8.18262H64.2021V18ZM73.0967 15.2842C73.0967 15.835 72.9766 16.3008 72.7363 16.6816C72.4961 17.0625 72.1885 17.3643 71.8135 17.5869C71.4561 17.8037 71.0488 17.9648 70.5918 18.0703C70.1348 18.1758 69.6777 18.2285 69.2207 18.2285C68.5762 18.2285 67.9668 18.1641 67.3926 18.0352C66.8184 17.9121 66.2471 17.7129 65.6787 17.4375V15.6094H65.7842C66.1826 15.9785 66.6807 16.2715 67.2783 16.4883C67.8818 16.6992 68.4824 16.8047 69.0801 16.8047C69.3379 16.8047 69.6133 16.7783 69.9062 16.7256C70.2051 16.667 70.457 16.5791 70.6621 16.4619C70.9316 16.2979 71.1221 16.1221 71.2334 15.9346C71.3506 15.7471 71.4092 15.4893 71.4092 15.1611C71.4092 14.8096 71.3418 14.5283 71.207 14.3174C71.0781 14.1006 70.8994 13.9395 70.6709 13.834C70.4424 13.7285 70.1846 13.6641 69.8975 13.6406C69.6162 13.6113 69.3174 13.5967 69.001 13.5967H67.8408V12.1729H68.7285C68.9512 12.1729 69.2295 12.167 69.5635 12.1553C69.8975 12.1377 70.1641 12.0908 70.3633 12.0146C70.6152 11.9209 70.8174 11.7891 70.9697 11.6191C71.1221 11.4434 71.1982 11.1504 71.1982 10.7402C71.1982 10.4531 71.1338 10.2217 71.0049 10.0459C70.876 9.87012 70.7148 9.73242 70.5215 9.63281C70.3223 9.52734 70.1055 9.45703 69.8711 9.42188C69.6367 9.38086 69.4111 9.36035 69.1943 9.36035C68.6377 9.36035 68.1016 9.43945 67.5859 9.59766C67.0762 9.75 66.6367 9.97852 66.2676 10.2832H66.1621V8.49902C66.584 8.35254 67.0498 8.22363 67.5596 8.1123C68.0752 8.00098 68.5908 7.94531 69.1064 7.94531C69.5225 7.94531 69.9443 7.98926 70.3721 8.07715C70.8057 8.15918 71.2158 8.30273 71.6025 8.50781C71.9658 8.70703 72.2705 8.98242 72.5166 9.33398C72.7627 9.67969 72.8857 10.1045 72.8857 10.6084C72.8857 11.1416 72.7334 11.6104 72.4287 12.0146C72.1299 12.4131 71.7314 12.6768 71.2334 12.8057V12.8672C71.7783 13.0547 72.2236 13.3418 72.5693 13.7285C72.9209 14.1152 73.0967 14.6338 73.0967 15.2842ZM82.2725 14.959C82.2725 15.4336 82.1758 15.8643 81.9824 16.251C81.7949 16.6377 81.5371 16.9512 81.209 17.1914C80.8223 17.4844 80.4092 17.6924 79.9697 17.8154C79.5303 17.9385 78.9648 18 78.2734 18H74.8369V8.18262H76.4893V12.0059H78.3174C79.0557 12.0059 79.627 12.0439 80.0312 12.1201C80.4414 12.1963 80.8486 12.3838 81.2529 12.6826C81.5928 12.9346 81.8477 13.2568 82.0176 13.6494C82.1875 14.042 82.2725 14.4785 82.2725 14.959ZM80.5674 14.9854C80.5674 14.6865 80.5146 14.4258 80.4092 14.2031C80.3096 13.9746 80.1426 13.79 79.9082 13.6494C79.6621 13.5029 79.3809 13.415 79.0645 13.3857C78.7539 13.3564 78.3057 13.3418 77.7197 13.3418H76.4893V16.6816H77.6846C78.2705 16.6816 78.7246 16.6582 79.0469 16.6113C79.3691 16.5586 79.6475 16.4619 79.8818 16.3213C80.1221 16.1689 80.2949 15.9902 80.4004 15.7852C80.5117 15.5742 80.5674 15.3076 80.5674 14.9854ZM91.7559 18H89.6992L86.333 13.4736H85.5068V18H83.8545V8.18262H85.5068V12.4541C85.9346 12.4482 86.2979 12.3604 86.5967 12.1904C86.9014 12.0146 87.1592 11.6777 87.3701 11.1797C87.4346 11.0332 87.5049 10.8633 87.5811 10.6699C87.6631 10.4766 87.7275 10.3066 87.7744 10.1602C88.0322 9.43945 88.3896 8.92969 88.8467 8.63086C89.3037 8.33203 89.8984 8.18262 90.6309 8.18262H91.0791V9.60645H90.7012C90.2383 9.60645 89.8896 9.70312 89.6553 9.89648C89.4268 10.084 89.2334 10.4297 89.0752 10.9336C88.9111 11.4434 88.7178 11.8418 88.4951 12.1289C88.2725 12.4102 88.0264 12.627 87.7568 12.7793L91.7559 18ZM100.571 18H98.9365V10.6787L94.3135 18H92.8193V8.18262H94.4541V15.3896L99.0244 8.18262H100.571V18ZM110.714 18H109.079V10.6787L104.456 18H102.962V8.18262H104.597V15.3896L109.167 8.18262H110.714V18ZM109.976 3.62109C109.976 4.125 109.914 4.58496 109.791 5.00098C109.668 5.41113 109.492 5.75684 109.264 6.03809C109 6.34863 108.701 6.58301 108.367 6.74121C108.033 6.89355 107.605 6.96973 107.084 6.96973C106.604 6.96973 106.182 6.89062 105.818 6.73242C105.461 6.56836 105.159 6.33691 104.913 6.03809C104.673 5.74512 104.491 5.39355 104.368 4.9834C104.245 4.57324 104.184 4.11914 104.184 3.62109H105.607C105.607 4.41211 105.73 4.9834 105.977 5.33496C106.223 5.68066 106.592 5.85352 107.084 5.85352C107.547 5.85352 107.907 5.68359 108.165 5.34375C108.423 4.99805 108.552 4.42383 108.552 3.62109H109.976Z" fill="#E1E2F3"/>
<path d="M0 33.5C0 31.567 1.567 30 3.5 30H155V37H3.5C1.567 37 0 35.433 0 33.5V33.5Z" fill="#FAD200"/>
<rect x="168" y="30" width="155" height="7" fill="#FAD200"/>
<path d="M336 30H487.5C489.433 30 491 31.567 491 33.5V33.5C491 35.433 489.433 37 487.5 37H336V30Z" fill="#E1E2F3"/>
</svg>
