<svg width="40" height="40" viewBox="0 0 40 40" fill="none" xmlns="http://www.w3.org/2000/svg">
<g clip-path="url(#clip0_947_6427)">
<path d="M31.6667 3.33337C32.5507 3.33337 33.3986 3.68456 34.0237 4.30968C34.6488 4.93481 35 5.78265 35 6.66671V26.6667C35 27.5508 34.6488 28.3986 34.0237 29.0237C33.3986 29.6488 32.5507 30 31.6667 30H28.3333V33.3334C28.3333 34.2174 27.9821 35.0653 27.357 35.6904C26.7319 36.3155 25.8841 36.6667 25 36.6667H8.33333C7.44928 36.6667 6.60143 36.3155 5.97631 35.6904C5.35119 35.0653 5 34.2174 5 33.3334V13.3334C5 12.4493 5.35119 11.6015 5.97631 10.9764C6.60143 10.3512 7.44928 10 8.33333 10H11.6667V6.66671C11.6667 5.78265 12.0179 4.93481 12.643 4.30968C13.2681 3.68456 14.1159 3.33337 15 3.33337H31.6667ZM25 13.3334H8.33333V33.3334H25V13.3334ZM16.6667 25C17.1087 25 17.5326 25.1756 17.8452 25.4882C18.1577 25.8008 18.3333 26.2247 18.3333 26.6667C18.3333 27.1087 18.1577 27.5327 17.8452 27.8452C17.5326 28.1578 17.1087 28.3334 16.6667 28.3334H13.3333C12.8913 28.3334 12.4674 28.1578 12.1548 27.8452C11.8423 27.5327 11.6667 27.1087 11.6667 26.6667C11.6667 26.2247 11.8423 25.8008 12.1548 25.4882C12.4674 25.1756 12.8913 25 13.3333 25H16.6667ZM31.6667 6.66671H15V10H25C25.8841 10 26.7319 10.3512 27.357 10.9764C27.9821 11.6015 28.3333 12.4493 28.3333 13.3334V26.6667H31.6667V6.66671ZM20 18.3334C20.4248 18.3338 20.8334 18.4965 21.1423 18.7881C21.4512 19.0797 21.6371 19.4783 21.662 19.9024C21.6868 20.3264 21.5489 20.744 21.2762 21.0698C21.0036 21.3955 20.6168 21.6049 20.195 21.655L20 21.6667H13.3333C12.9085 21.6662 12.4999 21.5036 12.1911 21.212C11.8822 20.9203 11.6963 20.5218 11.6714 20.0977C11.6465 19.6736 11.7845 19.2561 12.0571 18.9303C12.3298 18.6046 12.7165 18.3952 13.1383 18.345L13.3333 18.3334H20Z" fill="#595586"/>
</g>
<defs>
<clipPath id="clip0_947_6427">
<rect width="40" height="40" fill="white"/>
</clipPath>
</defs>
</svg>
