<svg width="12" height="6" viewBox="0 0 15 9" fill="none" xmlns="http://www.w3.org/2000/svg">
	<path d="M1.57303 0.23527C1.49347 0.160089 1.39989 0.101313 1.29761 0.0622997C1.19534 0.0232868 1.08638 0.00479984 0.976963 0.00789547C0.867544 0.0109911 0.759807 0.0356073 0.659902 0.0803394C0.559997 0.125072 0.469882 0.189044 0.3947 0.268602C0.319518 0.348162 0.260743 0.441751 0.22173 0.544025C0.182717 0.646299 0.16423 0.755256 0.167326 0.864674C0.170421 0.974092 0.195037 1.08183 0.23977 1.18174C0.284502 1.28164 0.348474 1.37176 0.428033 1.44694L6.5947 8.53027C6.74942 8.67655 6.95427 8.75806 7.1672 8.75806C7.38013 8.75806 7.58497 8.67655 7.7397 8.53027L13.9072 1.44694C13.9885 1.37225 14.0542 1.28216 14.1003 1.18188C14.1465 1.08161 14.1723 0.973162 14.1762 0.862833C14.1802 0.752504 14.1621 0.642495 14.1232 0.539198C14.0842 0.435901 14.0251 0.341372 13.9493 0.261106C13.8735 0.180839 13.7825 0.116431 13.6816 0.0716267C13.5808 0.0268211 13.472 0.00251102 13.3616 0.000106812C13.2512 -0.00229645 13.1415 0.0172539 13.0387 0.0576239C12.936 0.0979939 12.8423 0.158379 12.763 0.23527L7.16699 5.49992L1.57303 0.23527Z" fill="#E1E2F3"/>
</svg>
