<svg viewBox="0 0 162 64" fill="none" xmlns="http://www.w3.org/2000/svg">
	<path d="M34.593 49.1584C40.7127 52.5779 44.8296 53.6789 54.1532 55.7438C58.0918 56.6161 62.1175 57.048 66.1515 57.048C61.3255 57.8524 56.3951 57.9418 51.5629 57.1757C47.6225 56.551 45.2567 56.047 41.3651 54.9941C36.1693 53.5883 31.0594 51.7764 26.368 49.1376C20.0665 45.5933 14.9526 41.5068 6.87398 33.3792C5.12283 31.076 3.68145 28.9963 2.57879 26.9237C-1.7881 18.7155 0.804491 7.06545 9.20176 3.07425C10.8385 2.29632 12.6888 1.70143 14.7999 1.22388C19.9603 0.0565681 25.3241 -0.0119133 30.5785 0.608154C32.5964 0.846287 34.4649 1.15522 36.3193 1.57397C43.1545 3.11746 49.6343 6.33139 54.9647 10.8799C56.2734 11.9966 57.4287 13.2523 58.8687 15.1723C56.4288 13.5809 55.0623 12.6483 53.8169 11.89C48.5768 8.69985 42.5499 6.98768 36.5101 5.91268C32.2969 5.1628 28.4261 4.92404 22.6532 5.46203C20.7136 5.90259 18.9846 6.34129 17.4477 6.87342C10.4403 9.29963 7.2215 17.7725 8.76566 25.0255C9.34635 27.753 10.6567 30.3281 12.9429 33.3792C19.5665 40.7476 24.9995 43.798 34.593 49.1584Z" fill="#3BA6CA" stroke="#3BA6CA" stroke-width="0.3"/>
	<path d="M61.7463 5.38728L64.9377 4.85539L60.6526 4.85526C58.6546 4.85519 56.6607 4.90848 54.6808 5.17585C50.7687 5.70411 43.3755 7.04705 34.7911 10.3175C24.4891 15.1636 18.9862 18.7736 8.08777 29.7381C6.33662 32.0413 4.89524 34.121 3.79258 36.1936C-0.574313 44.4018 2.01828 56.0518 10.4155 60.0431C12.0523 60.821 13.9025 61.4159 16.0137 61.8934C21.1741 63.0607 26.5379 63.1292 31.7923 62.5091C37.2419 61.866 41.6024 60.7065 47.5359 58.2622C56.2091 54.2643 59.3883 52.6238 64.9377 47.3381C61.5087 49.5747 58.9524 50.8838 56.0097 52.1954C50.4062 54.6928 44.5653 56.7703 38.484 57.5787C33.952 58.1811 29.7371 58.2023 23.867 57.6553C21.9274 57.2147 20.1984 56.776 18.6615 56.2439C11.6541 53.8177 8.43529 45.3448 9.97945 38.0918C10.5601 35.3643 11.8705 32.7892 14.1567 29.7381C20.7803 22.3697 25.1976 18.7124 34.7911 13.352C41.9547 9.34923 49.1975 7.4969 53.5571 6.67573C56.2733 6.1641 59.0199 5.84168 61.7463 5.38728Z" fill="#636363" stroke="#636363" stroke-width="0.3"/>
	<path d="M42.366 42.1956C40.5848 42.1956 39.0171 42.0237 37.6629 41.68C36.3192 41.3362 35.0692 40.9092 33.9129 40.3987V34.8675H34.4442C35.6108 35.8571 36.8973 36.6175 38.3035 37.1487C39.7098 37.68 41.0744 37.9456 42.3973 37.9456C42.7306 37.9456 43.1681 37.9092 43.7098 37.8362C44.2619 37.7633 44.7046 37.6487 45.0379 37.4925C45.4442 37.3154 45.7879 37.0706 46.0692 36.7581C46.3504 36.4352 46.491 36.0133 46.491 35.4925C46.491 34.9092 46.2619 34.4352 45.8035 34.0706C45.3452 33.706 44.7983 33.4404 44.1629 33.2737C43.3713 33.0654 42.5223 32.8675 41.616 32.68C40.7202 32.4925 39.8817 32.2633 39.1004 31.9925C37.2983 31.3571 36.0067 30.5029 35.2254 29.43C34.4442 28.3571 34.0535 27.0133 34.0535 25.3987C34.0535 23.2217 34.9754 21.4612 36.8192 20.1175C38.6629 18.7633 40.965 18.0862 43.7254 18.0862C45.1108 18.0862 46.4858 18.2269 47.8504 18.5081C49.2254 18.7894 50.4546 19.1696 51.5379 19.6487V24.9612H51.0223C50.1577 24.2217 49.1004 23.5967 47.8504 23.0862C46.6108 22.5758 45.3348 22.3206 44.0223 22.3206C43.5119 22.3206 43.0535 22.3571 42.6473 22.43C42.241 22.5029 41.814 22.6435 41.366 22.8519C41.0015 23.0185 40.6838 23.2685 40.4129 23.6019C40.1525 23.9248 40.0223 24.2894 40.0223 24.6956C40.0223 25.2894 40.2306 25.7633 40.6473 26.1175C41.0744 26.4612 41.8921 26.7737 43.1004 27.055C43.8817 27.2321 44.6317 27.404 45.3504 27.5706C46.0796 27.7373 46.8556 27.9665 47.6785 28.2581C49.2931 28.8415 50.491 29.6279 51.2723 30.6175C52.064 31.5967 52.4598 32.8935 52.4598 34.5081C52.4598 36.8206 51.5483 38.68 49.7254 40.0862C47.9129 41.4925 45.4598 42.1956 42.366 42.1956ZM65.066 42.1175C62.8369 42.1175 61.2119 41.6592 60.191 40.7425C59.1806 39.8258 58.6754 38.3258 58.6754 36.2425V28.0394H56.5817V24.2269H58.6754V19.2112H64.1442V24.2269H69.4098V28.0394H64.1442V34.2581C64.1442 34.8727 64.1494 35.4092 64.1598 35.8675C64.1702 36.3258 64.2535 36.7373 64.4098 37.1019C64.5556 37.4665 64.8108 37.7581 65.1754 37.9769C65.5504 38.1852 66.0921 38.2894 66.8004 38.2894C67.0921 38.2894 67.4723 38.2269 67.941 38.1019C68.4202 37.9769 68.7535 37.8623 68.941 37.7581H69.4098V41.6175C68.816 41.7737 68.1858 41.8935 67.5192 41.9769C66.8525 42.0706 66.0348 42.1175 65.066 42.1175ZM80.3285 41.7737H74.8598V24.2269H80.3285V41.7737ZM80.4848 21.7269H74.7035V17.4612H80.4848V21.7269ZM108.685 41.7737V33.0081C108.685 32.1435 108.669 31.4144 108.638 30.8206C108.607 30.2269 108.513 29.7425 108.357 29.3675C108.2 28.9925 107.956 28.7217 107.622 28.555C107.299 28.3779 106.841 28.2894 106.247 28.2894C105.831 28.2894 105.419 28.3831 105.013 28.5706C104.607 28.7477 104.164 29.0029 103.685 29.3362V41.7737H98.1848V33.0081C98.1848 32.154 98.164 31.43 98.1223 30.8362C98.091 30.2321 97.9973 29.7425 97.841 29.3675C97.6848 28.9925 97.44 28.7217 97.1067 28.555C96.7837 28.3779 96.3306 28.2894 95.7473 28.2894C95.2994 28.2894 94.8619 28.3935 94.4348 28.6019C94.0077 28.8102 93.591 29.055 93.1848 29.3362V41.7737H87.716V24.2269H93.1848V26.1644C94.0806 25.404 94.9244 24.8102 95.716 24.3831C96.5077 23.956 97.3983 23.7425 98.3879 23.7425C99.4608 23.7425 100.404 23.9977 101.216 24.5081C102.029 25.0185 102.648 25.779 103.075 26.7894C104.127 25.8102 105.117 25.0602 106.044 24.5394C106.982 24.0081 107.93 23.7425 108.888 23.7425C109.7 23.7425 110.43 23.8727 111.075 24.1331C111.721 24.3935 112.268 24.7842 112.716 25.305C113.206 25.8675 113.57 26.5394 113.81 27.3206C114.06 28.0915 114.185 29.1019 114.185 30.3519V41.7737H108.685ZM130.432 42.2425C127.119 42.2425 124.578 41.4508 122.807 39.8675C121.046 38.2842 120.166 36.029 120.166 33.1019C120.166 30.2373 120.989 27.9508 122.635 26.2425C124.281 24.5342 126.583 23.68 129.541 23.68C132.229 23.68 134.249 24.404 135.604 25.8519C136.958 27.2998 137.635 29.3727 137.635 32.0706V34.0394H125.65C125.703 34.8519 125.874 35.5342 126.166 36.0862C126.458 36.6279 126.843 37.0602 127.322 37.3831C127.791 37.706 128.338 37.9404 128.963 38.0862C129.588 38.2217 130.27 38.2894 131.01 38.2894C131.645 38.2894 132.27 38.2217 132.885 38.0862C133.499 37.9404 134.062 37.7529 134.572 37.5237C135.02 37.3258 135.432 37.1123 135.807 36.8831C136.192 36.654 136.505 36.4508 136.744 36.2737H137.322V40.7894C136.874 40.9665 136.463 41.1331 136.088 41.2894C135.723 41.4352 135.218 41.5862 134.572 41.7425C133.979 41.8987 133.364 42.0185 132.729 42.1019C132.104 42.1956 131.338 42.2425 130.432 42.2425ZM132.244 30.7425C132.213 29.5862 131.942 28.706 131.432 28.1019C130.932 27.4977 130.161 27.1956 129.119 27.1956C128.057 27.1956 127.223 27.5133 126.619 28.1487C126.025 28.7842 125.697 29.6487 125.635 30.7425H132.244ZM160.96 41.7737H154.554L151.21 36.7269L147.772 41.7737H141.491L147.944 33.0081L141.6 24.2269H148.007L151.288 29.18L154.585 24.2269H160.882L154.522 32.8675L160.96 41.7737Z" fill="#636363"/>
	<path d="M69.929 58.5477C68.8938 58.5477 68.0996 58.3003 67.5462 57.8055C66.996 57.3107 66.721 56.6059 66.721 55.6912C66.721 54.796 66.9781 54.0815 67.4925 53.5477C68.0068 53.0138 68.7262 52.7469 69.6507 52.7469C70.4905 52.7469 71.122 52.9731 71.5452 53.4256C71.9684 53.8781 72.18 54.5259 72.18 55.369V55.9842H68.4348C68.4511 56.2381 68.5048 56.4513 68.596 56.6238C68.6871 56.7931 68.8076 56.9282 68.9573 57.0291C69.1038 57.13 69.2747 57.2033 69.47 57.2488C69.6653 57.2912 69.8785 57.3123 70.1096 57.3123C70.3082 57.3123 70.5035 57.2912 70.6956 57.2488C70.8876 57.2033 71.0634 57.1447 71.2229 57.0731C71.3629 57.0112 71.4915 56.9445 71.6087 56.8729C71.7291 56.8012 71.8268 56.7378 71.9016 56.6824H72.0823V58.0936C71.9423 58.1489 71.8138 58.201 71.6966 58.2498C71.5826 58.2954 71.4248 58.3426 71.2229 58.3914C71.0374 58.4402 70.8453 58.4777 70.6468 58.5037C70.4514 58.533 70.2122 58.5477 69.929 58.5477ZM70.4954 54.9539C70.4856 54.5926 70.401 54.3175 70.2415 54.1287C70.0852 53.9399 69.8444 53.8455 69.5188 53.8455C69.1868 53.8455 68.9264 53.9448 68.7376 54.1434C68.552 54.3419 68.4495 54.6121 68.43 54.9539H70.4954ZM78.1956 58.4012H76.4768V55.6815C76.4768 55.4601 76.4671 55.2404 76.4475 55.0223C76.4313 54.8009 76.3987 54.6382 76.3499 54.534C76.2913 54.4103 76.2067 54.3224 76.096 54.2703C75.9853 54.215 75.8372 54.1873 75.6516 54.1873C75.5117 54.1873 75.3701 54.2134 75.2268 54.2654C75.0836 54.3175 74.9306 54.4005 74.7679 54.5145V58.4012H73.0589V52.9178H74.7679V53.5233C75.0478 53.2856 75.3196 53.1001 75.5833 52.9666C75.8502 52.8332 76.1448 52.7664 76.4671 52.7664C77.027 52.7664 77.455 52.9438 77.7513 53.2986C78.0475 53.6502 78.1956 54.1613 78.1956 54.8318V58.4012ZM82.7415 56.6727V54.1873C82.6569 54.1483 82.5527 54.1157 82.429 54.0897C82.3053 54.0636 82.1816 54.0506 82.0579 54.0506C81.6477 54.0506 81.3385 54.1841 81.1302 54.451C80.9251 54.7147 80.8225 55.0841 80.8225 55.5594C80.8225 55.797 80.8372 55.9988 80.8665 56.1649C80.899 56.3276 80.9576 56.4725 81.0423 56.5994C81.1236 56.7231 81.2294 56.8175 81.3596 56.8826C81.4931 56.9445 81.6624 56.9754 81.8675 56.9754C82.0205 56.9754 82.1702 56.9494 82.3167 56.8973C82.4664 56.8452 82.608 56.7703 82.7415 56.6727ZM84.4505 57.7713C84.4505 58.2791 84.3772 58.7104 84.2307 59.0652C84.0843 59.4201 83.8841 59.6968 83.6302 59.8953C83.3763 60.0971 83.0719 60.242 82.7171 60.3299C82.3623 60.421 81.9684 60.4666 81.5354 60.4666C81.1708 60.4666 80.8242 60.4422 80.4954 60.3934C80.1699 60.3478 79.8867 60.2941 79.6458 60.2322V58.8602H79.846C79.9306 58.8927 80.0299 58.9285 80.1438 58.9676C80.261 59.0067 80.3782 59.0425 80.4954 59.075C80.6354 59.1108 80.7721 59.1401 80.9055 59.1629C81.039 59.1857 81.1757 59.1971 81.3157 59.1971C81.6054 59.1971 81.8463 59.1662 82.0384 59.1043C82.2337 59.0457 82.3802 58.9611 82.4778 58.8504C82.5755 58.7365 82.6438 58.6014 82.6829 58.4451C82.722 58.2921 82.7415 58.0984 82.7415 57.8641V57.7615C82.5494 57.9308 82.3264 58.0675 82.0725 58.1717C81.8219 58.2726 81.5631 58.3231 81.2962 58.3231C80.5865 58.3231 80.038 58.0919 79.6507 57.6297C79.2666 57.1675 79.0745 56.4643 79.0745 55.5203C79.0745 55.0906 79.1331 54.7049 79.2503 54.3631C79.3707 54.0213 79.5367 53.73 79.7483 53.4891C79.9501 53.258 80.1943 53.0805 80.4807 52.9568C80.7672 52.8299 81.0651 52.7664 81.3743 52.7664C81.6542 52.7664 81.9049 52.8022 82.1263 52.8738C82.3476 52.9455 82.5494 53.0415 82.7317 53.1619L82.7952 52.9178H84.4505V57.7713ZM87.4729 58.4012H85.7639V52.9178H87.4729V58.4012ZM87.5218 52.1365H85.7151V50.8035H87.5218V52.1365ZM93.9182 58.4012H92.1995V55.6815C92.1995 55.4601 92.1897 55.2404 92.1702 55.0223C92.1539 54.8009 92.1214 54.6382 92.0725 54.534C92.0139 54.4103 91.9293 54.3224 91.8186 54.2703C91.708 54.215 91.5598 54.1873 91.3743 54.1873C91.2343 54.1873 91.0927 54.2134 90.9495 54.2654C90.8063 54.3175 90.6533 54.4005 90.4905 54.5145V58.4012H88.7815V52.9178H90.4905V53.5233C90.7705 53.2856 91.0423 53.1001 91.3059 52.9666C91.5729 52.8332 91.8675 52.7664 92.1897 52.7664C92.7496 52.7664 93.1777 52.9438 93.4739 53.2986C93.7701 53.6502 93.9182 54.1613 93.9182 54.8318V58.4012ZM97.9954 58.5477C96.9602 58.5477 96.166 58.3003 95.6126 57.8055C95.0624 57.3107 94.7874 56.6059 94.7874 55.6912C94.7874 54.796 95.0445 54.0815 95.5589 53.5477C96.0732 53.0138 96.7926 52.7469 97.7171 52.7469C98.5569 52.7469 99.1884 52.9731 99.6116 53.4256C100.035 53.8781 100.246 54.5259 100.246 55.369V55.9842H96.5013C96.5175 56.2381 96.5712 56.4513 96.6624 56.6238C96.7535 56.7931 96.874 56.9282 97.0237 57.0291C97.1702 57.13 97.3411 57.2033 97.5364 57.2488C97.7317 57.2912 97.9449 57.3123 98.1761 57.3123C98.3746 57.3123 98.5699 57.2912 98.762 57.2488C98.9541 57.2033 99.1298 57.1447 99.2893 57.0731C99.4293 57.0112 99.5579 56.9445 99.6751 56.8729C99.7955 56.8012 99.8932 56.7378 99.968 56.6824H100.149V58.0936C100.009 58.1489 99.8802 58.201 99.763 58.2498C99.649 58.2954 99.4912 58.3426 99.2893 58.3914C99.1038 58.4402 98.9117 58.4777 98.7132 58.5037C98.5179 58.533 98.2786 58.5477 97.9954 58.5477ZM98.5618 54.9539C98.552 54.5926 98.4674 54.3175 98.3079 54.1287C98.1516 53.9399 97.9108 53.8455 97.5852 53.8455C97.2532 53.8455 96.9928 53.9448 96.804 54.1434C96.6184 54.3419 96.5159 54.6121 96.4964 54.9539H98.5618ZM103.933 58.5477C102.898 58.5477 102.103 58.3003 101.55 57.8055C101 57.3107 100.725 56.6059 100.725 55.6912C100.725 54.796 100.982 54.0815 101.496 53.5477C102.011 53.0138 102.73 52.7469 103.655 52.7469C104.494 52.7469 105.126 52.9731 105.549 53.4256C105.972 53.8781 106.184 54.5259 106.184 55.369V55.9842H102.439C102.455 56.2381 102.509 56.4513 102.6 56.6238C102.691 56.7931 102.811 56.9282 102.961 57.0291C103.108 57.13 103.279 57.2033 103.474 57.2488C103.669 57.2912 103.882 57.3123 104.114 57.3123C104.312 57.3123 104.507 57.2912 104.699 57.2488C104.892 57.2033 105.067 57.1447 105.227 57.0731C105.367 57.0112 105.495 56.9445 105.613 56.8729C105.733 56.8012 105.831 56.7378 105.906 56.6824H106.086V58.0936C105.946 58.1489 105.818 58.201 105.7 58.2498C105.587 58.2954 105.429 58.3426 105.227 58.3914C105.041 58.4402 104.849 58.4777 104.651 58.5037C104.455 58.533 104.216 58.5477 103.933 58.5477ZM104.499 54.9539C104.49 54.5926 104.405 54.3175 104.245 54.1287C104.089 53.9399 103.848 53.8455 103.523 53.8455C103.191 53.8455 102.93 53.9448 102.741 54.1434C102.556 54.3419 102.453 54.6121 102.434 54.9539H104.499ZM110.744 54.534H110.603C110.538 54.5112 110.443 54.4949 110.32 54.4852C110.196 54.4721 110.059 54.4656 109.909 54.4656C109.73 54.4656 109.542 54.4917 109.343 54.5438C109.148 54.5958 108.957 54.6577 108.772 54.7293V58.4012H107.063V52.9178H108.772V53.7039C108.85 53.6323 108.957 53.5428 109.094 53.4354C109.234 53.3247 109.361 53.2368 109.475 53.1717C109.599 53.0968 109.742 53.0333 109.905 52.9813C110.071 52.9259 110.227 52.8983 110.373 52.8983C110.429 52.8983 110.491 52.8999 110.559 52.9031C110.627 52.9064 110.689 52.9113 110.744 52.9178V54.534ZM113.108 58.4012H111.399V52.9178H113.108V58.4012ZM113.157 52.1365H111.35V50.8035H113.157V52.1365ZM119.553 58.4012H117.834V55.6815C117.834 55.4601 117.824 55.2404 117.805 55.0223C117.789 54.8009 117.756 54.6382 117.707 54.534C117.649 54.4103 117.564 54.3224 117.453 54.2703C117.343 54.215 117.195 54.1873 117.009 54.1873C116.869 54.1873 116.727 54.2134 116.584 54.2654C116.441 54.3175 116.288 54.4005 116.125 54.5145V58.4012H114.416V52.9178H116.125V53.5233C116.405 53.2856 116.677 53.1001 116.941 52.9666C117.208 52.8332 117.502 52.7664 117.824 52.7664C118.384 52.7664 118.812 52.9438 119.109 53.2986C119.405 53.6502 119.553 54.1613 119.553 54.8318V58.4012ZM124.099 56.6727V54.1873C124.014 54.1483 123.91 54.1157 123.786 54.0897C123.663 54.0636 123.539 54.0506 123.415 54.0506C123.005 54.0506 122.696 54.1841 122.488 54.451C122.283 54.7147 122.18 55.0841 122.18 55.5594C122.18 55.797 122.195 55.9988 122.224 56.1649C122.256 56.3276 122.315 56.4725 122.4 56.5994C122.481 56.7231 122.587 56.8175 122.717 56.8826C122.851 56.9445 123.02 56.9754 123.225 56.9754C123.378 56.9754 123.528 56.9494 123.674 56.8973C123.824 56.8452 123.965 56.7703 124.099 56.6727ZM125.808 57.7713C125.808 58.2791 125.735 58.7104 125.588 59.0652C125.442 59.4201 125.241 59.6968 124.988 59.8953C124.734 60.0971 124.429 60.242 124.074 60.3299C123.72 60.421 123.326 60.4666 122.893 60.4666C122.528 60.4666 122.182 60.4422 121.853 60.3934C121.527 60.3478 121.244 60.2941 121.003 60.2322V58.8602H121.203C121.288 58.8927 121.387 58.9285 121.501 58.9676C121.618 59.0067 121.736 59.0425 121.853 59.075C121.993 59.1108 122.13 59.1401 122.263 59.1629C122.396 59.1857 122.533 59.1971 122.673 59.1971C122.963 59.1971 123.204 59.1662 123.396 59.1043C123.591 59.0457 123.738 58.9611 123.835 58.8504C123.933 58.7365 124.001 58.6014 124.04 58.4451C124.079 58.2921 124.099 58.0984 124.099 57.8641V57.7615C123.907 57.9308 123.684 58.0675 123.43 58.1717C123.179 58.2726 122.921 58.3231 122.654 58.3231C121.944 58.3231 121.395 58.0919 121.008 57.6297C120.624 57.1675 120.432 56.4643 120.432 55.5203C120.432 55.0906 120.491 54.7049 120.608 54.3631C120.728 54.0213 120.894 53.73 121.106 53.4891C121.308 53.258 121.552 53.0805 121.838 52.9568C122.125 52.8299 122.422 52.7664 122.732 52.7664C123.012 52.7664 123.262 52.8022 123.484 52.8738C123.705 52.9455 123.907 53.0415 124.089 53.1619L124.153 52.9178H125.808V57.7713ZM133.327 56.6727V54.1873C133.243 54.1483 133.139 54.1157 133.015 54.0897C132.891 54.0636 132.768 54.0506 132.644 54.0506C132.234 54.0506 131.924 54.1841 131.716 54.451C131.511 54.7147 131.408 55.0841 131.408 55.5594C131.408 55.797 131.423 55.9988 131.452 56.1649C131.485 56.3276 131.544 56.4725 131.628 56.5994C131.71 56.7231 131.815 56.8175 131.946 56.8826C132.079 56.9445 132.248 56.9754 132.453 56.9754C132.606 56.9754 132.756 56.9494 132.903 56.8973C133.052 56.8452 133.194 56.7703 133.327 56.6727ZM135.036 57.7713C135.036 58.2791 134.963 58.7104 134.817 59.0652C134.67 59.4201 134.47 59.6968 134.216 59.8953C133.962 60.0971 133.658 60.242 133.303 60.3299C132.948 60.421 132.554 60.4666 132.121 60.4666C131.757 60.4666 131.41 60.4422 131.081 60.3934C130.756 60.3478 130.473 60.2941 130.232 60.2322V58.8602H130.432C130.517 58.8927 130.616 58.9285 130.73 58.9676C130.847 59.0067 130.964 59.0425 131.081 59.075C131.221 59.1108 131.358 59.1401 131.491 59.1629C131.625 59.1857 131.762 59.1971 131.902 59.1971C132.191 59.1971 132.432 59.1662 132.624 59.1043C132.82 59.0457 132.966 58.9611 133.064 58.8504C133.161 58.7365 133.23 58.6014 133.269 58.4451C133.308 58.2921 133.327 58.0984 133.327 57.8641V57.7615C133.135 57.9308 132.912 58.0675 132.658 58.1717C132.408 58.2726 132.149 58.3231 131.882 58.3231C131.172 58.3231 130.624 58.0919 130.237 57.6297C129.852 57.1675 129.66 56.4643 129.66 55.5203C129.66 55.0906 129.719 54.7049 129.836 54.3631C129.957 54.0213 130.123 53.73 130.334 53.4891C130.536 53.258 130.78 53.0805 131.067 52.9568C131.353 52.8299 131.651 52.7664 131.96 52.7664C132.24 52.7664 132.491 52.8022 132.712 52.8738C132.934 52.9455 133.135 53.0415 133.318 53.1619L133.381 52.9178H135.036V57.7713ZM140.032 54.534H139.89C139.825 54.5112 139.73 54.4949 139.607 54.4852C139.483 54.4721 139.346 54.4656 139.197 54.4656C139.018 54.4656 138.829 54.4917 138.63 54.5438C138.435 54.5958 138.244 54.6577 138.059 54.7293V58.4012H136.35V52.9178H138.059V53.7039C138.137 53.6323 138.244 53.5428 138.381 53.4354C138.521 53.3247 138.648 53.2368 138.762 53.1717C138.886 53.0968 139.029 53.0333 139.192 52.9813C139.358 52.9259 139.514 52.8983 139.66 52.8983C139.716 52.8983 139.778 52.8999 139.846 52.9031C139.914 52.9064 139.976 52.9113 140.032 52.9178V54.534ZM145.949 55.6619C145.949 56.5636 145.702 57.2749 145.207 57.7957C144.716 58.3133 144.019 58.5721 143.117 58.5721C142.222 58.5721 141.526 58.3133 141.028 57.7957C140.533 57.2749 140.285 56.5636 140.285 55.6619C140.285 54.7505 140.533 54.0376 141.028 53.5233C141.526 53.0057 142.222 52.7469 143.117 52.7469C144.016 52.7469 144.713 53.0073 145.207 53.5281C145.702 54.0457 145.949 54.757 145.949 55.6619ZM144.197 55.6717C144.197 55.3462 144.169 55.076 144.114 54.8611C144.061 54.643 143.988 54.4689 143.894 54.3387C143.793 54.202 143.679 54.1076 143.552 54.0555C143.425 54.0001 143.28 53.9725 143.117 53.9725C142.964 53.9725 142.826 53.9969 142.702 54.0457C142.579 54.0913 142.465 54.1808 142.361 54.3143C142.263 54.4412 142.185 54.6154 142.126 54.8367C142.068 55.0581 142.038 55.3364 142.038 55.6717C142.038 56.007 142.066 56.2788 142.121 56.4871C142.177 56.6922 142.248 56.8566 142.336 56.9803C142.427 57.1072 142.541 57.2 142.678 57.2586C142.815 57.3172 142.966 57.3465 143.132 57.3465C143.269 57.3465 143.407 57.3172 143.547 57.2586C143.69 57.2 143.804 57.1121 143.889 56.9949C143.99 56.855 144.066 56.6873 144.118 56.492C144.171 56.2934 144.197 56.02 144.197 55.6717ZM151.95 58.4012H150.241V57.7957C149.945 58.0431 149.673 58.2319 149.426 58.3621C149.179 58.4891 148.884 58.5526 148.542 58.5526C147.999 58.5526 147.574 58.3817 147.268 58.0399C146.965 57.6948 146.814 57.1772 146.814 56.4871V52.9178H148.533V55.6375C148.533 55.9207 148.539 56.1518 148.552 56.3309C148.568 56.5099 148.604 56.6613 148.659 56.785C148.712 56.8989 148.791 56.9852 148.899 57.0438C149.009 57.1024 149.162 57.1317 149.358 57.1317C149.478 57.1317 149.62 57.1024 149.783 57.0438C149.949 56.9852 150.102 56.9054 150.241 56.8045V52.9178H151.95V58.4012ZM158.64 55.5838C158.64 56.4595 158.417 57.1658 157.971 57.7029C157.528 58.2401 156.981 58.5086 156.33 58.5086C156.057 58.5086 155.819 58.4777 155.617 58.4158C155.416 58.354 155.201 58.258 154.973 58.1277V60.4129H153.264V52.9178H154.973V53.4891C155.224 53.2742 155.479 53.1001 155.74 52.9666C156 52.8332 156.301 52.7664 156.643 52.7664C157.278 52.7664 157.769 53.0187 158.117 53.5233C158.466 54.0278 158.64 54.7147 158.64 55.5838ZM156.892 55.618C156.892 55.0841 156.809 54.6968 156.643 54.4559C156.48 54.215 156.225 54.0945 155.876 54.0945C155.723 54.0945 155.57 54.119 155.417 54.1678C155.268 54.2166 155.119 54.2899 154.973 54.3875V57.1463C155.064 57.1854 155.163 57.213 155.271 57.2293C155.381 57.2456 155.512 57.2537 155.661 57.2537C156.078 57.2537 156.387 57.1186 156.589 56.8484C156.791 56.575 156.892 56.1649 156.892 55.618Z" fill="#636363"/>
</svg>
