<svg width="491" height="37" viewBox="0 0 491 37" fill="none" xmlns="http://www.w3.org/2000/svg">
<path d="M389.655 13.9834C389.655 14.6338 389.532 15.208 389.286 15.7061C389.04 16.2041 388.709 16.6143 388.293 16.9365C387.801 17.3232 387.273 17.5986 386.711 17.7627C386.148 17.9209 385.422 18 384.531 18H380.778V4.91309H384.25C385.182 4.91309 385.879 4.94531 386.342 5.00977C386.811 5.06836 387.259 5.21191 387.687 5.44043C388.155 5.69238 388.498 6.02344 388.715 6.43359C388.932 6.83789 389.04 7.31543 389.04 7.86621C389.04 8.48145 388.876 9.03223 388.548 9.51855C388.226 10.0049 387.777 10.3857 387.203 10.6611V10.7314C387.982 10.9424 388.586 11.3291 389.014 11.8916C389.441 12.4482 389.655 13.1455 389.655 13.9834ZM387.229 8.1123C387.229 7.7959 387.177 7.52344 387.071 7.29492C386.966 7.06055 386.796 6.87598 386.562 6.74121C386.28 6.58301 385.967 6.48633 385.621 6.45117C385.275 6.41602 384.798 6.39844 384.188 6.39844H382.519V10.2305H384.496C385.041 10.2305 385.442 10.2041 385.7 10.1514C385.958 10.0928 386.225 9.97559 386.5 9.7998C386.764 9.62988 386.951 9.40723 387.062 9.13184C387.174 8.85645 387.229 8.5166 387.229 8.1123ZM387.845 14.0537C387.845 13.5615 387.774 13.1572 387.634 12.8408C387.493 12.5186 387.209 12.2461 386.781 12.0234C386.506 11.877 386.204 11.7832 385.876 11.7422C385.554 11.7012 385.094 11.6807 384.496 11.6807H382.519V16.5146H383.934C384.695 16.5146 385.296 16.4795 385.735 16.4092C386.175 16.3389 386.562 16.1895 386.896 15.9609C387.224 15.7324 387.464 15.4746 387.616 15.1875C387.769 14.8945 387.845 14.5166 387.845 14.0537ZM399.016 18H397.381V10.6787L392.758 18H391.264V8.18262H392.898V15.3896L397.469 8.18262H399.016V18ZM405.309 18.2197C404.635 18.2197 404.017 18.1172 403.454 17.9121C402.892 17.7012 402.408 17.3848 402.004 16.9629C401.6 16.541 401.286 16.0107 401.063 15.3721C400.841 14.7275 400.729 13.9717 400.729 13.1045C400.729 12.2432 400.844 11.499 401.072 10.8721C401.307 10.2451 401.617 9.71777 402.004 9.29004C402.391 8.8623 402.871 8.53418 403.445 8.30566C404.025 8.07129 404.646 7.9541 405.309 7.9541C405.848 7.9541 406.366 8.03027 406.864 8.18262C407.368 8.33496 407.816 8.51074 408.209 8.70996V10.5645H408.112C407.995 10.4648 407.843 10.3506 407.655 10.2217C407.474 10.0928 407.251 9.96094 406.987 9.82617C406.759 9.70898 406.489 9.60645 406.179 9.51855C405.868 9.43066 405.569 9.38672 405.282 9.38672C404.427 9.38672 403.738 9.71191 403.217 10.3623C402.701 11.0068 402.443 11.9209 402.443 13.1045C402.443 14.2646 402.692 15.1699 403.19 15.8203C403.694 16.4648 404.392 16.7871 405.282 16.7871C405.821 16.7871 406.334 16.6758 406.82 16.4531C407.307 16.2305 407.737 15.9434 408.112 15.5918H408.209V17.4463C408.045 17.5225 407.84 17.6162 407.594 17.7275C407.348 17.833 407.125 17.9121 406.926 17.9648C406.645 18.0469 406.393 18.1084 406.17 18.1494C405.947 18.1963 405.66 18.2197 405.309 18.2197ZM417.798 13.0957C417.798 14.748 417.399 16.0254 416.603 16.9277C415.806 17.8242 414.745 18.2725 413.421 18.2725C412.056 18.2725 410.98 17.8096 410.195 16.8838C409.416 15.9521 409.026 14.6895 409.026 13.0957C409.026 11.4551 409.428 10.1807 410.23 9.27246C411.039 8.36426 412.103 7.91016 413.421 7.91016C414.745 7.91016 415.806 8.36426 416.603 9.27246C417.399 10.1748 417.798 11.4492 417.798 13.0957ZM416.093 13.0957C416.093 11.8242 415.861 10.8809 415.398 10.2656C414.936 9.64453 414.276 9.33398 413.421 9.33398C412.56 9.33398 411.895 9.64453 411.426 10.2656C410.963 10.8809 410.731 11.8242 410.731 13.0957C410.731 14.3262 410.963 15.2607 411.426 15.8994C411.895 16.5322 412.56 16.8486 413.421 16.8486C414.271 16.8486 414.927 16.5381 415.39 15.917C415.858 15.29 416.093 14.3496 416.093 13.0957ZM427.396 18H425.339L421.973 13.4736H421.146V18H419.494V8.18262H421.146V12.4541C421.574 12.4482 421.938 12.3604 422.236 12.1904C422.541 12.0146 422.799 11.6777 423.01 11.1797C423.074 11.0332 423.145 10.8633 423.221 10.6699C423.303 10.4766 423.367 10.3066 423.414 10.1602C423.672 9.43945 424.029 8.92969 424.486 8.63086C424.943 8.33203 425.538 8.18262 426.271 8.18262H426.719V9.60645H426.341C425.878 9.60645 425.529 9.70312 425.295 9.89648C425.066 10.084 424.873 10.4297 424.715 10.9336C424.551 11.4434 424.357 11.8418 424.135 12.1289C423.912 12.4102 423.666 12.627 423.396 12.7793L427.396 18ZM436.211 18H434.576V10.6787L429.953 18H428.459V8.18262H430.094V15.3896L434.664 8.18262H436.211V18ZM446.354 18H444.719V10.6787L440.096 18H438.602V8.18262H440.236V15.3896L444.807 8.18262H446.354V18ZM445.615 3.62109C445.615 4.125 445.554 4.58496 445.431 5.00098C445.308 5.41113 445.132 5.75684 444.903 6.03809C444.64 6.34863 444.341 6.58301 444.007 6.74121C443.673 6.89355 443.245 6.96973 442.724 6.96973C442.243 6.96973 441.821 6.89062 441.458 6.73242C441.101 6.56836 440.799 6.33691 440.553 6.03809C440.312 5.74512 440.131 5.39355 440.008 4.9834C439.885 4.57324 439.823 4.11914 439.823 3.62109H441.247C441.247 4.41211 441.37 4.9834 441.616 5.33496C441.862 5.68066 442.231 5.85352 442.724 5.85352C443.187 5.85352 443.547 5.68359 443.805 5.34375C444.062 4.99805 444.191 4.42383 444.191 3.62109H445.615Z" fill="#E1E2F3"/>
<path d="M214.861 18.2373C214.006 18.2373 213.218 18.0938 212.497 17.8066C211.782 17.5195 211.164 17.0918 210.643 16.5234C210.121 15.9551 209.717 15.2461 209.43 14.3965C209.143 13.5469 208.999 12.5713 208.999 11.4697C208.999 10.374 209.137 9.41895 209.412 8.60449C209.693 7.79004 210.101 7.08105 210.634 6.47754C211.155 5.8916 211.773 5.44629 212.488 5.1416C213.203 4.83105 214.003 4.67578 214.888 4.67578C215.327 4.67578 215.737 4.70801 216.118 4.77246C216.505 4.83691 216.862 4.91895 217.19 5.01855C217.472 5.10645 217.759 5.21777 218.052 5.35254C218.351 5.48145 218.644 5.625 218.931 5.7832V7.88379H218.79C218.638 7.74316 218.441 7.57324 218.201 7.37402C217.961 7.1748 217.668 6.97852 217.322 6.78516C216.988 6.60352 216.625 6.4541 216.232 6.33691C215.84 6.21973 215.386 6.16113 214.87 6.16113C214.313 6.16113 213.786 6.27539 213.288 6.50391C212.79 6.73242 212.354 7.06934 211.979 7.51465C211.609 7.95996 211.322 8.51953 211.117 9.19336C210.912 9.86719 210.81 10.626 210.81 11.4697C210.81 12.3662 210.918 13.1396 211.135 13.79C211.352 14.4346 211.647 14.9795 212.022 15.4248C212.386 15.8584 212.813 16.1865 213.306 16.4092C213.798 16.626 214.319 16.7344 214.87 16.7344C215.374 16.7344 215.84 16.6729 216.268 16.5498C216.695 16.4268 217.076 16.2715 217.41 16.084C217.732 15.9023 218.011 15.7178 218.245 15.5303C218.479 15.3369 218.664 15.1729 218.799 15.0381H218.931V17.1123C218.644 17.2471 218.371 17.376 218.113 17.499C217.861 17.6221 217.554 17.7422 217.19 17.8594C216.81 17.9824 216.455 18.0762 216.127 18.1406C215.805 18.2051 215.383 18.2373 214.861 18.2373ZM224.688 18.2285C223.123 18.2285 221.907 17.7891 221.04 16.9102C220.179 16.0254 219.748 14.7715 219.748 13.1484C219.748 11.5488 220.167 10.2773 221.005 9.33398C221.843 8.38477 222.938 7.91016 224.292 7.91016C224.901 7.91016 225.44 7.99805 225.909 8.17383C226.378 8.34961 226.788 8.625 227.14 9C227.491 9.375 227.761 9.83496 227.948 10.3799C228.136 10.9189 228.229 11.5811 228.229 12.3662V13.2627H221.427C221.427 14.4053 221.714 15.2783 222.288 15.8818C222.862 16.4854 223.656 16.7871 224.67 16.7871C225.033 16.7871 225.388 16.7461 225.733 16.6641C226.085 16.582 226.401 16.4766 226.683 16.3477C226.981 16.2129 227.233 16.084 227.438 15.9609C227.644 15.832 227.813 15.7119 227.948 15.6006H228.045V17.4023C227.852 17.4785 227.611 17.5752 227.324 17.6924C227.037 17.8037 226.779 17.8916 226.551 17.9561C226.229 18.0439 225.936 18.1113 225.672 18.1582C225.414 18.2051 225.086 18.2285 224.688 18.2285ZM226.621 11.9971C226.609 11.5518 226.557 11.168 226.463 10.8457C226.369 10.5234 226.234 10.251 226.059 10.0283C225.865 9.78223 225.616 9.59473 225.312 9.46582C225.013 9.33691 224.641 9.27246 224.195 9.27246C223.756 9.27246 223.381 9.33984 223.07 9.47461C222.766 9.60352 222.487 9.79395 222.235 10.0459C221.989 10.3037 221.802 10.5908 221.673 10.9072C221.544 11.2178 221.462 11.5811 221.427 11.9971H226.621ZM238.135 12.832C238.135 14.4668 237.742 15.7705 236.957 16.7432C236.178 17.71 235.19 18.1934 233.995 18.1934C233.509 18.1934 233.078 18.1377 232.703 18.0264C232.328 17.915 231.944 17.7422 231.552 17.5078V21.6211H229.899V8.18262H231.552V9.21094C231.962 8.8418 232.416 8.53418 232.914 8.28809C233.418 8.03613 233.966 7.91016 234.558 7.91016C235.683 7.91016 236.559 8.35547 237.186 9.24609C237.818 10.1367 238.135 11.332 238.135 12.832ZM236.43 13.0166C236.43 11.8975 236.251 11.0303 235.894 10.415C235.536 9.79395 234.956 9.4834 234.153 9.4834C233.685 9.4834 233.23 9.58887 232.791 9.7998C232.357 10.0049 231.944 10.2715 231.552 10.5996V16.1631C231.985 16.374 232.354 16.5176 232.659 16.5938C232.97 16.6699 233.324 16.708 233.723 16.708C234.578 16.708 235.243 16.3945 235.718 15.7676C236.192 15.1406 236.43 14.2236 236.43 13.0166ZM244.111 18.2285C242.547 18.2285 241.331 17.7891 240.464 16.9102C239.603 16.0254 239.172 14.7715 239.172 13.1484C239.172 11.5488 239.591 10.2773 240.429 9.33398C241.267 8.38477 242.362 7.91016 243.716 7.91016C244.325 7.91016 244.864 7.99805 245.333 8.17383C245.802 8.34961 246.212 8.625 246.563 9C246.915 9.375 247.185 9.83496 247.372 10.3799C247.56 10.9189 247.653 11.5811 247.653 12.3662V13.2627H240.851C240.851 14.4053 241.138 15.2783 241.712 15.8818C242.286 16.4854 243.08 16.7871 244.094 16.7871C244.457 16.7871 244.812 16.7461 245.157 16.6641C245.509 16.582 245.825 16.4766 246.106 16.3477C246.405 16.2129 246.657 16.084 246.862 15.9609C247.067 15.832 247.237 15.7119 247.372 15.6006H247.469V17.4023C247.275 17.4785 247.035 17.5752 246.748 17.6924C246.461 17.8037 246.203 17.8916 245.975 17.9561C245.652 18.0439 245.359 18.1113 245.096 18.1582C244.838 18.2051 244.51 18.2285 244.111 18.2285ZM246.045 11.9971C246.033 11.5518 245.98 11.168 245.887 10.8457C245.793 10.5234 245.658 10.251 245.482 10.0283C245.289 9.78223 245.04 9.59473 244.735 9.46582C244.437 9.33691 244.064 9.27246 243.619 9.27246C243.18 9.27246 242.805 9.33984 242.494 9.47461C242.189 9.60352 241.911 9.79395 241.659 10.0459C241.413 10.3037 241.226 10.5908 241.097 10.9072C240.968 11.2178 240.886 11.5811 240.851 11.9971H246.045ZM257.743 20.3555H256.205V17.9736H249.736V20.3555H248.198V16.5938H248.849C249.405 15.6797 249.859 14.4873 250.211 13.0166C250.568 11.54 250.747 9.92871 250.747 8.18262H256.768V16.5938H257.743V20.3555ZM255.115 16.5938V9.57129H252.303C252.227 11.0361 252.024 12.375 251.696 13.5879C251.374 14.7949 250.967 15.7969 250.475 16.5938H255.115ZM267.13 18H265.478V13.5791H261.03V18H259.378V8.18262H261.03V12.1553H265.478V8.18262H267.13V18ZM271.208 18H269.556V8.18262H271.208V18ZM271.322 6.53906H269.441V4.8252H271.322V6.53906ZM281.386 18H279.751V10.6787L275.128 18H273.634V8.18262H275.269V15.3896L279.839 8.18262H281.386V18ZM280.647 3.62109C280.647 4.125 280.586 4.58496 280.463 5.00098C280.34 5.41113 280.164 5.75684 279.936 6.03809C279.672 6.34863 279.373 6.58301 279.039 6.74121C278.705 6.89355 278.277 6.96973 277.756 6.96973C277.275 6.96973 276.854 6.89062 276.49 6.73242C276.133 6.56836 275.831 6.33691 275.585 6.03809C275.345 5.74512 275.163 5.39355 275.04 4.9834C274.917 4.57324 274.855 4.11914 274.855 3.62109H276.279C276.279 4.41211 276.402 4.9834 276.648 5.33496C276.895 5.68066 277.264 5.85352 277.756 5.85352C278.219 5.85352 278.579 5.68359 278.837 5.34375C279.095 4.99805 279.224 4.42383 279.224 3.62109H280.647Z" fill="#E1E2F3"/>
<path d="M49.5781 18H46.291V12.1992H41.8174V18H38.5303V4.91309H41.8174V9.70312H46.291V4.91309H49.5781V18ZM61.4961 18H58.4727V12.0059L54.6934 18H52.1182V8.12988H55.1416V13.4912L58.6045 8.12988H61.4961V18ZM71.6299 15.2051C71.6299 15.7734 71.498 16.2568 71.2344 16.6553C70.9766 17.0537 70.6279 17.373 70.1885 17.6133C69.7666 17.8418 69.2773 18.0088 68.7207 18.1143C68.1699 18.2197 67.5781 18.2725 66.9453 18.2725C66.1367 18.2725 65.4072 18.1963 64.7568 18.0439C64.1064 17.8916 63.5 17.7129 62.9375 17.5078V15.1348H63.2627C63.7021 15.3926 64.1885 15.6123 64.7217 15.7939C65.2607 15.9756 65.8086 16.0664 66.3652 16.0664C66.5703 16.0664 66.8193 16.0518 67.1123 16.0225C67.4053 15.9932 67.6338 15.9434 67.7979 15.873C68.0498 15.7734 68.2285 15.6533 68.334 15.5127C68.4395 15.3662 68.4922 15.1816 68.4922 14.959C68.4922 14.7129 68.4336 14.5195 68.3164 14.3789C68.1992 14.2324 68.0381 14.124 67.833 14.0537C67.6279 13.9834 67.3906 13.9424 67.1211 13.9307C66.8516 13.9131 66.5586 13.9043 66.2422 13.9043H65.0908V11.9355H65.9697C66.1924 11.9355 66.4619 11.9326 66.7783 11.9268C67.0947 11.915 67.3467 11.8828 67.5342 11.8301C67.7744 11.7656 67.9619 11.6748 68.0967 11.5576C68.2314 11.4346 68.2988 11.2412 68.2988 10.9775C68.2988 10.79 68.2402 10.6377 68.123 10.5205C68.0117 10.3975 67.8623 10.3008 67.6748 10.2305C67.5166 10.1719 67.332 10.1279 67.1211 10.0986C66.9102 10.0693 66.6875 10.0547 66.4531 10.0547C66.0254 10.0547 65.5684 10.125 65.082 10.2656C64.5957 10.4062 64.1533 10.582 63.7549 10.793H63.4297V8.45508C63.7637 8.34961 64.2793 8.22363 64.9766 8.07715C65.6797 7.9248 66.3623 7.84863 67.0244 7.84863C67.6162 7.84863 68.1611 7.89258 68.6592 7.98047C69.1572 8.06836 69.626 8.22363 70.0654 8.44629C70.4756 8.65723 70.8066 8.93848 71.0586 9.29004C71.3105 9.6416 71.4365 10.0723 71.4365 10.582C71.4365 11.1035 71.2695 11.5723 70.9355 11.9883C70.6016 12.4043 70.1943 12.6855 69.7139 12.832V12.9111C70.3232 13.0811 70.7949 13.3652 71.1289 13.7637C71.4629 14.1562 71.6299 14.6367 71.6299 15.2051ZM82.1855 14.6865C82.1855 15.1904 82.0859 15.6562 81.8867 16.084C81.6875 16.5059 81.4268 16.8516 81.1045 17.1211C80.7061 17.4434 80.293 17.6719 79.8652 17.8066C79.4434 17.9355 78.8721 18 78.1514 18H73.2998V8.12988H76.3672V11.4609H78.1602C78.8691 11.4609 79.4404 11.5107 79.874 11.6104C80.3135 11.71 80.7295 11.9062 81.1221 12.1992C81.4678 12.457 81.7314 12.8057 81.9131 13.2451C82.0947 13.6846 82.1855 14.165 82.1855 14.6865ZM78.8018 15.5391C78.9014 15.4102 78.9688 15.2783 79.0039 15.1436C79.0391 15.0029 79.0566 14.8594 79.0566 14.7129C79.0566 14.291 78.9307 13.9775 78.6787 13.7725C78.4268 13.5674 78.0635 13.4648 77.5889 13.4648H76.3672V16.0049H77.5889C77.9053 16.0049 78.1631 15.9609 78.3623 15.873C78.5615 15.7793 78.708 15.668 78.8018 15.5391ZM93.4004 18H89.8584L87.5205 14.0889H86.7295V18H83.6533V8.12988H86.7295V12.0938C87.1631 12.0879 87.4854 12.0264 87.6963 11.9092C87.9131 11.7861 88.1475 11.4668 88.3994 10.9512C88.4814 10.7754 88.5693 10.582 88.6631 10.3711C88.7568 10.1602 88.8418 9.97266 88.918 9.80859C89.2285 9.1582 89.6094 8.71289 90.0605 8.47266C90.5176 8.23242 91.0713 8.1123 91.7217 8.1123C91.9502 8.1123 92.167 8.11523 92.3721 8.12109C92.5771 8.12695 92.7236 8.12988 92.8115 8.12988V10.7666H92.2139C92.0264 10.7666 91.8564 10.8047 91.7041 10.8809C91.5576 10.9512 91.4287 11.042 91.3174 11.1533C91.2061 11.2705 91.1211 11.3877 91.0625 11.5049C91.0098 11.6221 90.957 11.7363 90.9043 11.8477C90.7695 12.1641 90.6699 12.3896 90.6055 12.5244C90.541 12.6592 90.4268 12.791 90.2627 12.9199L93.4004 18ZM103.895 18H100.871V12.0059L97.0918 18H94.5166V8.12988H97.54V13.4912L101.003 8.12988H103.895V18ZM115.637 18H112.613V12.0059L108.834 18H106.259V8.12988H109.282V13.4912L112.745 8.12988H115.637V18ZM114.819 3.75293C114.819 4.70801 114.5 5.48438 113.861 6.08203C113.223 6.67969 112.262 6.97852 110.979 6.97852C109.695 6.97852 108.734 6.67969 108.096 6.08203C107.457 5.47852 107.138 4.70215 107.138 3.75293H109.537C109.549 4.33301 109.66 4.76953 109.871 5.0625C110.082 5.34961 110.451 5.49316 110.979 5.49316C111.506 5.49316 111.875 5.34961 112.086 5.0625C112.297 4.77539 112.408 4.33887 112.42 3.75293H114.819Z" fill="#00E4F2"/>
<path d="M0 33.5C0 31.567 1.567 30 3.5 30H155V37H3.5C1.567 37 0 35.433 0 33.5V33.5Z" fill="#00E4F2"/>
<rect x="168" y="30" width="155" height="7" fill="#E1E2F3"/>
<path d="M336 30H487.5C489.433 30 491 31.567 491 33.5V33.5C491 35.433 489.433 37 487.5 37H336V30Z" fill="#E1E2F3"/>
</svg>
