<svg width="491" height="37" viewBox="0 0 491 37" fill="none" xmlns="http://www.w3.org/2000/svg">
<path d="M385.297 13.9922C385.297 14.6426 385.174 15.2139 384.928 15.7061C384.682 16.1982 384.351 16.6055 383.935 16.9277C383.442 17.3145 382.9 17.5898 382.309 17.7539C381.723 17.918 380.976 18 380.067 18H374.829V4.91309H379.452C380.413 4.91309 381.14 4.95117 381.632 5.02734C382.13 5.09766 382.596 5.25 383.029 5.48438C383.498 5.73633 383.847 6.07324 384.075 6.49512C384.31 6.91699 384.427 7.40332 384.427 7.9541C384.427 8.59277 384.266 9.16113 383.943 9.65918C383.627 10.1572 383.188 10.5234 382.625 10.7578V10.8281C383.434 10.998 384.081 11.3467 384.567 11.874C385.054 12.3955 385.297 13.1016 385.297 13.9922ZM381.087 8.61328C381.087 8.40234 381.031 8.18555 380.92 7.96289C380.814 7.74023 380.647 7.5791 380.419 7.47949C380.202 7.38574 379.944 7.33594 379.646 7.33008C379.353 7.31836 378.913 7.3125 378.327 7.3125H378.099V10.0811H378.512C379.074 10.0811 379.467 10.0752 379.689 10.0635C379.918 10.0518 380.152 9.99023 380.393 9.87891C380.656 9.75586 380.838 9.58594 380.938 9.36914C381.037 9.15234 381.087 8.90039 381.087 8.61328ZM381.913 13.9307C381.913 13.5264 381.831 13.21 381.667 12.9814C381.503 12.7529 381.257 12.5801 380.929 12.4629C380.729 12.3867 380.454 12.3457 380.103 12.3398C379.757 12.3281 379.291 12.3223 378.705 12.3223H378.099V15.6006H378.274C379.13 15.6006 379.722 15.5947 380.05 15.583C380.378 15.5713 380.712 15.4922 381.052 15.3457C381.351 15.2168 381.567 15.0293 381.702 14.7832C381.843 14.5312 381.913 14.2471 381.913 13.9307ZM396.389 18H393.365V12.0059L389.586 18H387.011V8.12988H390.034V13.4912L393.497 8.12988H396.389V18ZM403.596 18.2637C402.781 18.2637 402.034 18.1611 401.354 17.9561C400.681 17.751 400.095 17.4346 399.597 17.0068C399.104 16.5791 398.721 16.043 398.445 15.3984C398.17 14.748 398.032 13.9834 398.032 13.1045C398.032 12.1611 398.182 11.3584 398.48 10.6963C398.779 10.0342 399.184 9.48926 399.693 9.06152C400.186 8.65137 400.763 8.34961 401.425 8.15625C402.093 7.95703 402.787 7.85742 403.508 7.85742C404.053 7.85742 404.598 7.92187 405.143 8.05078C405.688 8.17383 406.235 8.37305 406.786 8.64844V11.2852H406.391C406.268 11.168 406.115 11.0391 405.934 10.8984C405.758 10.7578 405.564 10.6289 405.354 10.5117C405.131 10.3887 404.879 10.2861 404.598 10.2041C404.316 10.1162 404.003 10.0723 403.657 10.0723C402.872 10.0723 402.263 10.3477 401.829 10.8984C401.401 11.4434 401.188 12.1787 401.188 13.1045C401.188 14.0947 401.416 14.833 401.873 15.3193C402.336 15.8057 402.948 16.0488 403.71 16.0488C404.097 16.0488 404.437 16.0049 404.729 15.917C405.022 15.8291 405.274 15.7236 405.485 15.6006C405.69 15.4775 405.866 15.3516 406.013 15.2227C406.159 15.0879 406.285 14.9678 406.391 14.8623H406.786V17.499C406.61 17.5752 406.405 17.6631 406.171 17.7627C405.942 17.8623 405.708 17.9443 405.468 18.0088C405.169 18.0908 404.888 18.1523 404.624 18.1934C404.366 18.2402 404.023 18.2637 403.596 18.2637ZM417.72 13.0693C417.72 14.6924 417.274 15.9727 416.384 16.9102C415.499 17.8418 414.245 18.3076 412.622 18.3076C411.011 18.3076 409.757 17.8418 408.86 16.9102C407.97 15.9727 407.524 14.6924 407.524 13.0693C407.524 11.4287 407.97 10.1455 408.86 9.21973C409.757 8.28809 411.011 7.82227 412.622 7.82227C414.239 7.82227 415.493 8.29102 416.384 9.22852C417.274 10.1602 417.72 11.4404 417.72 13.0693ZM414.564 13.0869C414.564 12.501 414.515 12.0146 414.415 11.6279C414.321 11.2354 414.189 10.9219 414.02 10.6875C413.838 10.4414 413.633 10.2715 413.404 10.1777C413.176 10.0781 412.915 10.0283 412.622 10.0283C412.347 10.0283 412.098 10.0723 411.875 10.1602C411.652 10.2422 411.447 10.4033 411.26 10.6436C411.084 10.8721 410.943 11.1855 410.838 11.584C410.732 11.9824 410.68 12.4834 410.68 13.0869C410.68 13.6904 410.729 14.1797 410.829 14.5547C410.929 14.9238 411.058 15.2197 411.216 15.4424C411.38 15.6709 411.585 15.8379 411.831 15.9434C412.077 16.0488 412.35 16.1016 412.648 16.1016C412.895 16.1016 413.144 16.0488 413.396 15.9434C413.653 15.8379 413.858 15.6797 414.011 15.4688C414.192 15.2168 414.33 14.915 414.424 14.5635C414.518 14.2061 414.564 13.7139 414.564 13.0869ZM429.102 18H425.56L423.222 14.0889H422.431V18H419.354V8.12988H422.431V12.0938C422.864 12.0879 423.187 12.0264 423.397 11.9092C423.614 11.7861 423.849 11.4668 424.101 10.9512C424.183 10.7754 424.271 10.582 424.364 10.3711C424.458 10.1602 424.543 9.97266 424.619 9.80859C424.93 9.1582 425.311 8.71289 425.762 8.47266C426.219 8.23242 426.772 8.1123 427.423 8.1123C427.651 8.1123 427.868 8.11523 428.073 8.12109C428.278 8.12695 428.425 8.12988 428.513 8.12988V10.7666H427.915C427.728 10.7666 427.558 10.8047 427.405 10.8809C427.259 10.9512 427.13 11.042 427.019 11.1533C426.907 11.2705 426.822 11.3877 426.764 11.5049C426.711 11.6221 426.658 11.7363 426.605 11.8477C426.471 12.1641 426.371 12.3896 426.307 12.5244C426.242 12.6592 426.128 12.791 425.964 12.9199L429.102 18ZM439.596 18H436.572V12.0059L432.793 18H430.218V8.12988H433.241V13.4912L436.704 8.12988H439.596V18ZM451.338 18H448.314V12.0059L444.535 18H441.96V8.12988H444.983V13.4912L448.446 8.12988H451.338V18ZM450.521 3.75293C450.521 4.70801 450.201 5.48438 449.562 6.08203C448.924 6.67969 447.963 6.97852 446.68 6.97852C445.396 6.97852 444.436 6.67969 443.797 6.08203C443.158 5.47852 442.839 4.70215 442.839 3.75293H445.238C445.25 4.33301 445.361 4.76953 445.572 5.0625C445.783 5.34961 446.152 5.49316 446.68 5.49316C447.207 5.49316 447.576 5.34961 447.787 5.0625C447.998 4.77539 448.109 4.33887 448.121 3.75293H450.521Z" fill="#FF6B00"/>
<path d="M214.861 18.2373C214.006 18.2373 213.218 18.0938 212.497 17.8066C211.782 17.5195 211.164 17.0918 210.643 16.5234C210.121 15.9551 209.717 15.2461 209.43 14.3965C209.143 13.5469 208.999 12.5713 208.999 11.4697C208.999 10.374 209.137 9.41895 209.412 8.60449C209.693 7.79004 210.101 7.08105 210.634 6.47754C211.155 5.8916 211.773 5.44629 212.488 5.1416C213.203 4.83105 214.003 4.67578 214.888 4.67578C215.327 4.67578 215.737 4.70801 216.118 4.77246C216.505 4.83691 216.862 4.91895 217.19 5.01855C217.472 5.10645 217.759 5.21777 218.052 5.35254C218.351 5.48145 218.644 5.625 218.931 5.7832V7.88379H218.79C218.638 7.74316 218.441 7.57324 218.201 7.37402C217.961 7.1748 217.668 6.97852 217.322 6.78516C216.988 6.60352 216.625 6.4541 216.232 6.33691C215.84 6.21973 215.386 6.16113 214.87 6.16113C214.313 6.16113 213.786 6.27539 213.288 6.50391C212.79 6.73242 212.354 7.06934 211.979 7.51465C211.609 7.95996 211.322 8.51953 211.117 9.19336C210.912 9.86719 210.81 10.626 210.81 11.4697C210.81 12.3662 210.918 13.1396 211.135 13.79C211.352 14.4346 211.647 14.9795 212.022 15.4248C212.386 15.8584 212.813 16.1865 213.306 16.4092C213.798 16.626 214.319 16.7344 214.87 16.7344C215.374 16.7344 215.84 16.6729 216.268 16.5498C216.695 16.4268 217.076 16.2715 217.41 16.084C217.732 15.9023 218.011 15.7178 218.245 15.5303C218.479 15.3369 218.664 15.1729 218.799 15.0381H218.931V17.1123C218.644 17.2471 218.371 17.376 218.113 17.499C217.861 17.6221 217.554 17.7422 217.19 17.8594C216.81 17.9824 216.455 18.0762 216.127 18.1406C215.805 18.2051 215.383 18.2373 214.861 18.2373ZM224.688 18.2285C223.123 18.2285 221.907 17.7891 221.04 16.9102C220.179 16.0254 219.748 14.7715 219.748 13.1484C219.748 11.5488 220.167 10.2773 221.005 9.33398C221.843 8.38477 222.938 7.91016 224.292 7.91016C224.901 7.91016 225.44 7.99805 225.909 8.17383C226.378 8.34961 226.788 8.625 227.14 9C227.491 9.375 227.761 9.83496 227.948 10.3799C228.136 10.9189 228.229 11.5811 228.229 12.3662V13.2627H221.427C221.427 14.4053 221.714 15.2783 222.288 15.8818C222.862 16.4854 223.656 16.7871 224.67 16.7871C225.033 16.7871 225.388 16.7461 225.733 16.6641C226.085 16.582 226.401 16.4766 226.683 16.3477C226.981 16.2129 227.233 16.084 227.438 15.9609C227.644 15.832 227.813 15.7119 227.948 15.6006H228.045V17.4023C227.852 17.4785 227.611 17.5752 227.324 17.6924C227.037 17.8037 226.779 17.8916 226.551 17.9561C226.229 18.0439 225.936 18.1113 225.672 18.1582C225.414 18.2051 225.086 18.2285 224.688 18.2285ZM226.621 11.9971C226.609 11.5518 226.557 11.168 226.463 10.8457C226.369 10.5234 226.234 10.251 226.059 10.0283C225.865 9.78223 225.616 9.59473 225.312 9.46582C225.013 9.33691 224.641 9.27246 224.195 9.27246C223.756 9.27246 223.381 9.33984 223.07 9.47461C222.766 9.60352 222.487 9.79395 222.235 10.0459C221.989 10.3037 221.802 10.5908 221.673 10.9072C221.544 11.2178 221.462 11.5811 221.427 11.9971H226.621ZM238.135 12.832C238.135 14.4668 237.742 15.7705 236.957 16.7432C236.178 17.71 235.19 18.1934 233.995 18.1934C233.509 18.1934 233.078 18.1377 232.703 18.0264C232.328 17.915 231.944 17.7422 231.552 17.5078V21.6211H229.899V8.18262H231.552V9.21094C231.962 8.8418 232.416 8.53418 232.914 8.28809C233.418 8.03613 233.966 7.91016 234.558 7.91016C235.683 7.91016 236.559 8.35547 237.186 9.24609C237.818 10.1367 238.135 11.332 238.135 12.832ZM236.43 13.0166C236.43 11.8975 236.251 11.0303 235.894 10.415C235.536 9.79395 234.956 9.4834 234.153 9.4834C233.685 9.4834 233.23 9.58887 232.791 9.7998C232.357 10.0049 231.944 10.2715 231.552 10.5996V16.1631C231.985 16.374 232.354 16.5176 232.659 16.5938C232.97 16.6699 233.324 16.708 233.723 16.708C234.578 16.708 235.243 16.3945 235.718 15.7676C236.192 15.1406 236.43 14.2236 236.43 13.0166ZM244.111 18.2285C242.547 18.2285 241.331 17.7891 240.464 16.9102C239.603 16.0254 239.172 14.7715 239.172 13.1484C239.172 11.5488 239.591 10.2773 240.429 9.33398C241.267 8.38477 242.362 7.91016 243.716 7.91016C244.325 7.91016 244.864 7.99805 245.333 8.17383C245.802 8.34961 246.212 8.625 246.563 9C246.915 9.375 247.185 9.83496 247.372 10.3799C247.56 10.9189 247.653 11.5811 247.653 12.3662V13.2627H240.851C240.851 14.4053 241.138 15.2783 241.712 15.8818C242.286 16.4854 243.08 16.7871 244.094 16.7871C244.457 16.7871 244.812 16.7461 245.157 16.6641C245.509 16.582 245.825 16.4766 246.106 16.3477C246.405 16.2129 246.657 16.084 246.862 15.9609C247.067 15.832 247.237 15.7119 247.372 15.6006H247.469V17.4023C247.275 17.4785 247.035 17.5752 246.748 17.6924C246.461 17.8037 246.203 17.8916 245.975 17.9561C245.652 18.0439 245.359 18.1113 245.096 18.1582C244.838 18.2051 244.51 18.2285 244.111 18.2285ZM246.045 11.9971C246.033 11.5518 245.98 11.168 245.887 10.8457C245.793 10.5234 245.658 10.251 245.482 10.0283C245.289 9.78223 245.04 9.59473 244.735 9.46582C244.437 9.33691 244.064 9.27246 243.619 9.27246C243.18 9.27246 242.805 9.33984 242.494 9.47461C242.189 9.60352 241.911 9.79395 241.659 10.0459C241.413 10.3037 241.226 10.5908 241.097 10.9072C240.968 11.2178 240.886 11.5811 240.851 11.9971H246.045ZM257.743 20.3555H256.205V17.9736H249.736V20.3555H248.198V16.5938H248.849C249.405 15.6797 249.859 14.4873 250.211 13.0166C250.568 11.54 250.747 9.92871 250.747 8.18262H256.768V16.5938H257.743V20.3555ZM255.115 16.5938V9.57129H252.303C252.227 11.0361 252.024 12.375 251.696 13.5879C251.374 14.7949 250.967 15.7969 250.475 16.5938H255.115ZM267.13 18H265.478V13.5791H261.03V18H259.378V8.18262H261.03V12.1553H265.478V8.18262H267.13V18ZM271.208 18H269.556V8.18262H271.208V18ZM271.322 6.53906H269.441V4.8252H271.322V6.53906ZM281.386 18H279.751V10.6787L275.128 18H273.634V8.18262H275.269V15.3896L279.839 8.18262H281.386V18ZM280.647 3.62109C280.647 4.125 280.586 4.58496 280.463 5.00098C280.34 5.41113 280.164 5.75684 279.936 6.03809C279.672 6.34863 279.373 6.58301 279.039 6.74121C278.705 6.89355 278.277 6.96973 277.756 6.96973C277.275 6.96973 276.854 6.89062 276.49 6.73242C276.133 6.56836 275.831 6.33691 275.585 6.03809C275.345 5.74512 275.163 5.39355 275.04 4.9834C274.917 4.57324 274.855 4.11914 274.855 3.62109H276.279C276.279 4.41211 276.402 4.9834 276.648 5.33496C276.895 5.68066 277.264 5.85352 277.756 5.85352C278.219 5.85352 278.579 5.68359 278.837 5.34375C279.095 4.99805 279.224 4.42383 279.224 3.62109H280.647Z" fill="#E1E2F3"/>
<path d="M53.9189 18H52.1787V11.5928H46.1582V18H44.418V4.91309H46.1582V10.0459H52.1787V4.91309H53.9189V18ZM64.2021 18H62.5674V10.6787L57.9443 18H56.4502V8.18262H58.085V15.3896L62.6553 8.18262H64.2021V18ZM73.0967 15.2842C73.0967 15.835 72.9766 16.3008 72.7363 16.6816C72.4961 17.0625 72.1885 17.3643 71.8135 17.5869C71.4561 17.8037 71.0488 17.9648 70.5918 18.0703C70.1348 18.1758 69.6777 18.2285 69.2207 18.2285C68.5762 18.2285 67.9668 18.1641 67.3926 18.0352C66.8184 17.9121 66.2471 17.7129 65.6787 17.4375V15.6094H65.7842C66.1826 15.9785 66.6807 16.2715 67.2783 16.4883C67.8818 16.6992 68.4824 16.8047 69.0801 16.8047C69.3379 16.8047 69.6133 16.7783 69.9062 16.7256C70.2051 16.667 70.457 16.5791 70.6621 16.4619C70.9316 16.2979 71.1221 16.1221 71.2334 15.9346C71.3506 15.7471 71.4092 15.4893 71.4092 15.1611C71.4092 14.8096 71.3418 14.5283 71.207 14.3174C71.0781 14.1006 70.8994 13.9395 70.6709 13.834C70.4424 13.7285 70.1846 13.6641 69.8975 13.6406C69.6162 13.6113 69.3174 13.5967 69.001 13.5967H67.8408V12.1729H68.7285C68.9512 12.1729 69.2295 12.167 69.5635 12.1553C69.8975 12.1377 70.1641 12.0908 70.3633 12.0146C70.6152 11.9209 70.8174 11.7891 70.9697 11.6191C71.1221 11.4434 71.1982 11.1504 71.1982 10.7402C71.1982 10.4531 71.1338 10.2217 71.0049 10.0459C70.876 9.87012 70.7148 9.73242 70.5215 9.63281C70.3223 9.52734 70.1055 9.45703 69.8711 9.42188C69.6367 9.38086 69.4111 9.36035 69.1943 9.36035C68.6377 9.36035 68.1016 9.43945 67.5859 9.59766C67.0762 9.75 66.6367 9.97852 66.2676 10.2832H66.1621V8.49902C66.584 8.35254 67.0498 8.22363 67.5596 8.1123C68.0752 8.00098 68.5908 7.94531 69.1064 7.94531C69.5225 7.94531 69.9443 7.98926 70.3721 8.07715C70.8057 8.15918 71.2158 8.30273 71.6025 8.50781C71.9658 8.70703 72.2705 8.98242 72.5166 9.33398C72.7627 9.67969 72.8857 10.1045 72.8857 10.6084C72.8857 11.1416 72.7334 11.6104 72.4287 12.0146C72.1299 12.4131 71.7314 12.6768 71.2334 12.8057V12.8672C71.7783 13.0547 72.2236 13.3418 72.5693 13.7285C72.9209 14.1152 73.0967 14.6338 73.0967 15.2842ZM82.2725 14.959C82.2725 15.4336 82.1758 15.8643 81.9824 16.251C81.7949 16.6377 81.5371 16.9512 81.209 17.1914C80.8223 17.4844 80.4092 17.6924 79.9697 17.8154C79.5303 17.9385 78.9648 18 78.2734 18H74.8369V8.18262H76.4893V12.0059H78.3174C79.0557 12.0059 79.627 12.0439 80.0312 12.1201C80.4414 12.1963 80.8486 12.3838 81.2529 12.6826C81.5928 12.9346 81.8477 13.2568 82.0176 13.6494C82.1875 14.042 82.2725 14.4785 82.2725 14.959ZM80.5674 14.9854C80.5674 14.6865 80.5146 14.4258 80.4092 14.2031C80.3096 13.9746 80.1426 13.79 79.9082 13.6494C79.6621 13.5029 79.3809 13.415 79.0645 13.3857C78.7539 13.3564 78.3057 13.3418 77.7197 13.3418H76.4893V16.6816H77.6846C78.2705 16.6816 78.7246 16.6582 79.0469 16.6113C79.3691 16.5586 79.6475 16.4619 79.8818 16.3213C80.1221 16.1689 80.2949 15.9902 80.4004 15.7852C80.5117 15.5742 80.5674 15.3076 80.5674 14.9854ZM91.7559 18H89.6992L86.333 13.4736H85.5068V18H83.8545V8.18262H85.5068V12.4541C85.9346 12.4482 86.2979 12.3604 86.5967 12.1904C86.9014 12.0146 87.1592 11.6777 87.3701 11.1797C87.4346 11.0332 87.5049 10.8633 87.5811 10.6699C87.6631 10.4766 87.7275 10.3066 87.7744 10.1602C88.0322 9.43945 88.3896 8.92969 88.8467 8.63086C89.3037 8.33203 89.8984 8.18262 90.6309 8.18262H91.0791V9.60645H90.7012C90.2383 9.60645 89.8896 9.70312 89.6553 9.89648C89.4268 10.084 89.2334 10.4297 89.0752 10.9336C88.9111 11.4434 88.7178 11.8418 88.4951 12.1289C88.2725 12.4102 88.0264 12.627 87.7568 12.7793L91.7559 18ZM100.571 18H98.9365V10.6787L94.3135 18H92.8193V8.18262H94.4541V15.3896L99.0244 8.18262H100.571V18ZM110.714 18H109.079V10.6787L104.456 18H102.962V8.18262H104.597V15.3896L109.167 8.18262H110.714V18ZM109.976 3.62109C109.976 4.125 109.914 4.58496 109.791 5.00098C109.668 5.41113 109.492 5.75684 109.264 6.03809C109 6.34863 108.701 6.58301 108.367 6.74121C108.033 6.89355 107.605 6.96973 107.084 6.96973C106.604 6.96973 106.182 6.89062 105.818 6.73242C105.461 6.56836 105.159 6.33691 104.913 6.03809C104.673 5.74512 104.491 5.39355 104.368 4.9834C104.245 4.57324 104.184 4.11914 104.184 3.62109H105.607C105.607 4.41211 105.73 4.9834 105.977 5.33496C106.223 5.68066 106.592 5.85352 107.084 5.85352C107.547 5.85352 107.907 5.68359 108.165 5.34375C108.423 4.99805 108.552 4.42383 108.552 3.62109H109.976Z" fill="#E1E2F3"/>
<path d="M0 33.5C0 31.567 1.567 30 3.5 30H155V37H3.5C1.567 37 0 35.433 0 33.5V33.5Z" fill="#FF6B00"/>
<rect x="168" y="30" width="155" height="7" fill="#FF6B00"/>
<path d="M336 30H487.5C489.433 30 491 31.567 491 33.5V33.5C491 35.433 489.433 37 487.5 37H336V30Z" fill="#FF6B00"/>
</svg>
