<svg viewBox="0 0 100 20" fill="none" xmlns="http://www.w3.org/2000/svg">
	<rect width="100" height="20" rx="5" fill="#D0FFE9"/>
	<path d="M16.7422 10.3906C17.0026 10.6146 17.2161 10.8958 17.3828 11.2344C17.5547 11.5677 17.6406 12 17.6406 12.5312C17.6406 13.0521 17.5365 13.5365 17.3281 13.9844C17.1198 14.4271 16.8333 14.8151 16.4688 15.1484C16.0938 15.4922 15.6302 15.7552 15.0781 15.9375C14.526 16.1198 13.9115 16.2109 13.2344 16.2109C12.5104 16.2109 11.8464 16.1406 11.2422 16C10.638 15.8542 10.1536 15.7031 9.78906 15.5469V13.8125H9.89844C10.3151 14.0885 10.8203 14.3333 11.4141 14.5469C12.013 14.7552 12.612 14.8594 13.2109 14.8594C13.5911 14.8594 13.9688 14.8099 14.3438 14.7109C14.724 14.6068 15.0417 14.4401 15.2969 14.2109C15.5521 13.9818 15.7396 13.7344 15.8594 13.4688C15.9792 13.1979 16.0391 12.8594 16.0391 12.4531C16.0391 12.0573 15.9661 11.724 15.8203 11.4531C15.6797 11.1823 15.4792 10.9635 15.2188 10.7969C14.9635 10.6302 14.6562 10.513 14.2969 10.4453C13.9427 10.3724 13.5625 10.3359 13.1562 10.3359H11.9375V9.03906H13C13.8229 9.03906 14.4844 8.875 14.9844 8.54688C15.4844 8.21875 15.7344 7.73958 15.7344 7.10938C15.7344 6.82292 15.6719 6.57812 15.5469 6.375C15.4271 6.16667 15.2552 5.9974 15.0312 5.86719C14.7865 5.72656 14.5286 5.63281 14.2578 5.58594C13.9922 5.53385 13.7005 5.50781 13.3828 5.50781C13.0495 5.50781 12.7214 5.54688 12.3984 5.625C12.0755 5.69792 11.7708 5.78906 11.4844 5.89844C11.2135 6.00781 10.9766 6.1224 10.7734 6.24219C10.5703 6.36198 10.4036 6.46094 10.2734 6.53906H10.1719V4.82812C10.526 4.66146 11.0078 4.50781 11.6172 4.36719C12.2266 4.22656 12.8281 4.15625 13.4219 4.15625C14.0208 4.15625 14.5365 4.20833 14.9688 4.3125C15.401 4.41146 15.7969 4.57552 16.1562 4.80469C16.5469 5.0599 16.8385 5.36198 17.0312 5.71094C17.2292 6.05469 17.3281 6.46615 17.3281 6.94531C17.3281 7.57552 17.1172 8.125 16.6953 8.59375C16.2786 9.0625 15.7318 9.36979 15.0547 9.51562V9.63281C15.3151 9.67969 15.5964 9.76302 15.8984 9.88281C16.2057 10.0026 16.487 10.1719 16.7422 10.3906ZM24.0156 13.8516V11.4297C23.6667 11.4609 23.224 11.5052 22.6875 11.5625C22.1562 11.6146 21.7266 11.6901 21.3984 11.7891C21.0078 11.9089 20.6849 12.0938 20.4297 12.3438C20.1745 12.5885 20.0469 12.9323 20.0469 13.375C20.0469 13.875 20.1875 14.2526 20.4688 14.5078C20.75 14.763 21.1615 14.8906 21.7031 14.8906C22.1667 14.8906 22.5859 14.7917 22.9609 14.5938C23.3359 14.3906 23.6875 14.1432 24.0156 13.8516ZM24.0156 15.0703C23.8958 15.1589 23.7344 15.2839 23.5312 15.4453C23.3333 15.6016 23.1406 15.7266 22.9531 15.8203C22.6927 15.9557 22.4401 16.0599 22.1953 16.1328C21.9557 16.2057 21.6172 16.2422 21.1797 16.2422C20.8203 16.2422 20.4792 16.1745 20.1562 16.0391C19.8333 15.9036 19.5495 15.7135 19.3047 15.4688C19.0703 15.2292 18.8828 14.9349 18.7422 14.5859C18.6016 14.2318 18.5312 13.8594 18.5312 13.4688C18.5312 12.8646 18.6589 12.3516 18.9141 11.9297C19.1693 11.5026 19.5729 11.1641 20.125 10.9141C20.6146 10.6901 21.1927 10.5365 21.8594 10.4531C22.526 10.3646 23.2448 10.2995 24.0156 10.2578V9.97656C24.0156 9.63281 23.9635 9.35677 23.8594 9.14844C23.7552 8.9349 23.6094 8.77083 23.4219 8.65625C23.2344 8.53646 23.0052 8.45833 22.7344 8.42188C22.4635 8.38021 22.1849 8.35938 21.8984 8.35938C21.5599 8.35938 21.1615 8.41146 20.7031 8.51562C20.2448 8.61458 19.7865 8.76042 19.3281 8.95312H19.2422V7.46094C19.513 7.38281 19.901 7.29688 20.4062 7.20312C20.9115 7.10938 21.4115 7.0625 21.9062 7.0625C22.5052 7.0625 23.0104 7.10938 23.4219 7.20312C23.8333 7.29688 24.2031 7.46615 24.5312 7.71094C24.849 7.95052 25.0859 8.26042 25.2422 8.64062C25.3984 9.02083 25.4766 9.48438 25.4766 10.0312V16H24.0156V15.0703ZM34.3906 13.3594C34.3906 13.7812 34.3099 14.1562 34.1484 14.4844C33.987 14.8073 33.7656 15.0781 33.4844 15.2969C33.1302 15.5729 32.7578 15.7604 32.3672 15.8594C31.9818 15.9531 31.5182 16 30.9766 16H27.5469V7.27344H30.75C31.3906 7.27344 31.8594 7.29427 32.1562 7.33594C32.4531 7.3724 32.7474 7.47135 33.0391 7.63281C33.3464 7.79948 33.5729 8.02083 33.7188 8.29688C33.8646 8.57292 33.9375 8.90104 33.9375 9.28125C33.9375 9.69792 33.8229 10.0729 33.5938 10.4062C33.3646 10.7344 33.0599 10.9896 32.6797 11.1719L32.7188 11.2266C33.1927 11.3464 33.5885 11.5885 33.9062 11.9531C34.2292 12.3177 34.3906 12.7865 34.3906 13.3594ZM32.4297 9.50781C32.4297 9.3099 32.3958 9.13802 32.3281 8.99219C32.2656 8.84635 32.1536 8.73177 31.9922 8.64844C31.8047 8.54948 31.5938 8.49219 31.3594 8.47656C31.1302 8.45573 30.8099 8.44531 30.3984 8.44531H29V10.8359H30.6875C31.0469 10.8359 31.3021 10.8203 31.4531 10.7891C31.6042 10.7526 31.7708 10.6797 31.9531 10.5703C32.125 10.4661 32.2474 10.3255 32.3203 10.1484C32.3932 9.97135 32.4297 9.75781 32.4297 9.50781ZM32.875 13.3672C32.875 13.0703 32.8307 12.8333 32.7422 12.6562C32.6589 12.474 32.4714 12.3125 32.1797 12.1719C31.9974 12.0833 31.8021 12.0286 31.5938 12.0078C31.3854 11.987 31.0964 11.9766 30.7266 11.9766H29V14.8281H30.2734C30.7995 14.8281 31.2083 14.8073 31.5 14.7656C31.7917 14.724 32.0417 14.6406 32.25 14.5156C32.4688 14.3802 32.6276 14.224 32.7266 14.0469C32.8255 13.8698 32.875 13.6432 32.875 13.3672ZM39.7266 16.2031C38.3359 16.2031 37.2552 15.8125 36.4844 15.0312C35.7188 14.2448 35.3359 13.1302 35.3359 11.6875C35.3359 10.2656 35.7083 9.13542 36.4531 8.29688C37.1979 7.45312 38.1719 7.03125 39.375 7.03125C39.9167 7.03125 40.3958 7.10938 40.8125 7.26562C41.2292 7.42188 41.5938 7.66667 41.9062 8C42.2188 8.33333 42.4583 8.74219 42.625 9.22656C42.7917 9.70573 42.875 10.2943 42.875 10.9922V11.7891H36.8281C36.8281 12.8047 37.0833 13.5807 37.5938 14.1172C38.1042 14.6536 38.8099 14.9219 39.7109 14.9219C40.0339 14.9219 40.349 14.8854 40.6562 14.8125C40.9688 14.7396 41.25 14.6458 41.5 14.5312C41.7656 14.4115 41.9896 14.2969 42.1719 14.1875C42.3542 14.0729 42.5052 13.9661 42.625 13.8672H42.7109V15.4688C42.5391 15.5365 42.3255 15.6224 42.0703 15.7266C41.8151 15.8255 41.5859 15.9036 41.3828 15.9609C41.0964 16.0391 40.8359 16.099 40.6016 16.1406C40.3724 16.1823 40.0807 16.2031 39.7266 16.2031ZM41.4453 10.6641C41.4349 10.2682 41.388 9.92708 41.3047 9.64062C41.2214 9.35417 41.1016 9.11198 40.9453 8.91406C40.7734 8.69531 40.5521 8.52865 40.2812 8.41406C40.0156 8.29948 39.6849 8.24219 39.2891 8.24219C38.8984 8.24219 38.5651 8.30208 38.2891 8.42188C38.0182 8.53646 37.7708 8.70573 37.5469 8.92969C37.3281 9.15885 37.1615 9.41406 37.0469 9.69531C36.9323 9.97135 36.8594 10.2943 36.8281 10.6641H41.4453ZM51.6797 11.4062C51.6797 12.8594 51.3307 14.0182 50.6328 14.8828C49.9401 15.7422 49.0625 16.1719 48 16.1719C47.5677 16.1719 47.1849 16.1224 46.8516 16.0234C46.5182 15.9245 46.1771 15.7708 45.8281 15.5625V19.2188H44.3594V7.27344H45.8281V8.1875C46.1927 7.85938 46.5964 7.58594 47.0391 7.36719C47.487 7.14323 47.974 7.03125 48.5 7.03125C49.5 7.03125 50.2786 7.42708 50.8359 8.21875C51.3984 9.01042 51.6797 10.0729 51.6797 11.4062ZM50.1641 11.5703C50.1641 10.5755 50.0052 9.80469 49.6875 9.25781C49.3698 8.70573 48.8542 8.42969 48.1406 8.42969C47.724 8.42969 47.3203 8.52344 46.9297 8.71094C46.5443 8.89323 46.1771 9.13021 45.8281 9.42188V14.3672C46.2135 14.5547 46.5417 14.6823 46.8125 14.75C47.0885 14.8177 47.4036 14.8516 47.7578 14.8516C48.5182 14.8516 49.1094 14.5729 49.5312 14.0156C49.9531 13.4583 50.1641 12.6432 50.1641 11.5703ZM63.5312 16H53.2031V7.27344H54.6719V14.7578H57.6328V7.27344H59.1016V14.7578H62.0625V7.27344H63.5312V16ZM69.4453 16.2031C68.0547 16.2031 66.974 15.8125 66.2031 15.0312C65.4375 14.2448 65.0547 13.1302 65.0547 11.6875C65.0547 10.2656 65.4271 9.13542 66.1719 8.29688C66.9167 7.45312 67.8906 7.03125 69.0938 7.03125C69.6354 7.03125 70.1146 7.10938 70.5312 7.26562C70.9479 7.42188 71.3125 7.66667 71.625 8C71.9375 8.33333 72.1771 8.74219 72.3438 9.22656C72.5104 9.70573 72.5938 10.2943 72.5938 10.9922V11.7891H66.5469C66.5469 12.8047 66.8021 13.5807 67.3125 14.1172C67.8229 14.6536 68.5286 14.9219 69.4297 14.9219C69.7526 14.9219 70.0677 14.8854 70.375 14.8125C70.6875 14.7396 70.9688 14.6458 71.2188 14.5312C71.4844 14.4115 71.7083 14.2969 71.8906 14.1875C72.0729 14.0729 72.224 13.9661 72.3438 13.8672H72.4297V15.4688C72.2578 15.5365 72.0443 15.6224 71.7891 15.7266C71.5339 15.8255 71.3047 15.9036 71.1016 15.9609C70.8151 16.0391 70.5547 16.099 70.3203 16.1406C70.0911 16.1823 69.7995 16.2031 69.4453 16.2031ZM71.1641 10.6641C71.1536 10.2682 71.1068 9.92708 71.0234 9.64062C70.9401 9.35417 70.8203 9.11198 70.6641 8.91406C70.4922 8.69531 70.2708 8.52865 70 8.41406C69.7344 8.29948 69.4036 8.24219 69.0078 8.24219C68.6172 8.24219 68.2839 8.30208 68.0078 8.42188C67.737 8.53646 67.4896 8.70573 67.2656 8.92969C67.0469 9.15885 66.8802 9.41406 66.7656 9.69531C66.651 9.97135 66.5781 10.2943 66.5469 10.6641H71.1641ZM80.9688 16H79.5V12.0703H75.5469V16H74.0781V7.27344H75.5469V10.8047H79.5V7.27344H80.9688V16ZM86.8828 16.2031C85.4922 16.2031 84.4115 15.8125 83.6406 15.0312C82.875 14.2448 82.4922 13.1302 82.4922 11.6875C82.4922 10.2656 82.8646 9.13542 83.6094 8.29688C84.3542 7.45312 85.3281 7.03125 86.5312 7.03125C87.0729 7.03125 87.5521 7.10938 87.9688 7.26562C88.3854 7.42188 88.75 7.66667 89.0625 8C89.375 8.33333 89.6146 8.74219 89.7812 9.22656C89.9479 9.70573 90.0312 10.2943 90.0312 10.9922V11.7891H83.9844C83.9844 12.8047 84.2396 13.5807 84.75 14.1172C85.2604 14.6536 85.9661 14.9219 86.8672 14.9219C87.1901 14.9219 87.5052 14.8854 87.8125 14.8125C88.125 14.7396 88.4062 14.6458 88.6562 14.5312C88.9219 14.4115 89.1458 14.2969 89.3281 14.1875C89.5104 14.0729 89.6615 13.9661 89.7812 13.8672H89.8672V15.4688C89.6953 15.5365 89.4818 15.6224 89.2266 15.7266C88.9714 15.8255 88.7422 15.9036 88.5391 15.9609C88.2526 16.0391 87.9922 16.099 87.7578 16.1406C87.5286 16.1823 87.237 16.2031 86.8828 16.2031ZM88.6016 10.6641C88.5911 10.2682 88.5443 9.92708 88.4609 9.64062C88.3776 9.35417 88.2578 9.11198 88.1016 8.91406C87.9297 8.69531 87.7083 8.52865 87.4375 8.41406C87.1719 8.29948 86.8411 8.24219 86.4453 8.24219C86.0547 8.24219 85.7214 8.30208 85.4453 8.42188C85.1745 8.53646 84.9271 8.70573 84.7031 8.92969C84.4844 9.15885 84.3177 9.41406 84.2031 9.69531C84.0885 9.97135 84.0156 10.2943 83.9844 10.6641H88.6016Z" fill="#01D36E"/>
</svg>
