<svg viewBox="0 0 100 20" fill="none" xmlns="http://www.w3.org/2000/svg">
	<rect width="100" height="20" rx="5" fill="#FFDFC1"/>
	<path d="M26.9062 5.70312C27.349 6.21354 27.6927 6.84635 27.9375 7.60156C28.1823 8.35677 28.3047 9.21875 28.3047 10.1875C28.3047 11.1302 28.1849 11.9818 27.9453 12.7422C27.7057 13.5026 27.3594 14.1406 26.9062 14.6562C26.4323 15.1979 25.8776 15.599 25.2422 15.8594C24.612 16.1146 23.9167 16.2422 23.1562 16.2422C22.3698 16.2422 21.6615 16.1094 21.0312 15.8438C20.401 15.5781 19.8594 15.1823 19.4062 14.6562C18.9583 14.1406 18.6146 13.5052 18.375 12.75C18.1354 11.9948 18.0156 11.1406 18.0156 10.1875C18.0156 9.20833 18.1354 8.34896 18.375 7.60938C18.6198 6.86979 18.9661 6.23438 19.4141 5.70312C19.862 5.1875 20.401 4.79688 21.0312 4.53125C21.6667 4.26042 22.375 4.125 23.1562 4.125C23.9479 4.125 24.6615 4.26302 25.2969 4.53906C25.9323 4.8151 26.4688 5.20312 26.9062 5.70312ZM26.6953 10.1875C26.6953 9.41667 26.612 8.73438 26.4453 8.14062C26.2786 7.54688 26.0443 7.05469 25.7422 6.66406C25.4349 6.26302 25.0625 5.96354 24.625 5.76562C24.1927 5.5625 23.7057 5.46094 23.1641 5.46094C22.6016 5.46094 22.1094 5.5599 21.6875 5.75781C21.2708 5.95052 20.901 6.2526 20.5781 6.66406C20.2708 7.0599 20.0339 7.55729 19.8672 8.15625C19.7057 8.75521 19.625 9.43229 19.625 10.1875C19.625 11.7135 19.9453 12.8828 20.5859 13.6953C21.2266 14.5026 22.0859 14.9062 23.1641 14.9062C24.2422 14.9062 25.099 14.5026 25.7344 13.6953C26.375 12.8828 26.6953 11.7135 26.6953 10.1875ZM36.0781 8.5625C36.4167 8.90625 36.6797 9.34375 36.8672 9.875C37.0547 10.401 37.1484 11.013 37.1484 11.7109C37.1484 12.3828 37.0417 13.0052 36.8281 13.5781C36.6146 14.1458 36.3255 14.625 35.9609 15.0156C35.5859 15.4219 35.1693 15.7292 34.7109 15.9375C34.2578 16.1406 33.763 16.2422 33.2266 16.2422C32.6797 16.2422 32.1771 16.1484 31.7188 15.9609C31.2656 15.7682 30.8776 15.474 30.5547 15.0781C30.1536 14.5833 29.8516 13.9635 29.6484 13.2188C29.4505 12.474 29.3516 11.5521 29.3516 10.4531C29.3516 10.0625 29.3672 9.66667 29.3984 9.26562C29.4349 8.85938 29.5104 8.375 29.625 7.8125C29.7292 7.3125 29.8698 6.84896 30.0469 6.42188C30.224 5.98958 30.4557 5.625 30.7422 5.32812C31.112 4.94271 31.5938 4.63542 32.1875 4.40625C32.7865 4.17708 33.5781 4.01823 34.5625 3.92969C34.9115 3.89844 35.2839 3.86979 35.6797 3.84375C36.0807 3.8125 36.3854 3.78906 36.5938 3.77344V5.125C36.3229 5.14062 36.0339 5.16146 35.7266 5.1875C35.4193 5.20833 35.0677 5.23438 34.6719 5.26562C34.1458 5.30729 33.5964 5.40104 33.0234 5.54688C32.4505 5.6875 32.0182 5.90885 31.7266 6.21094C31.5078 6.4349 31.3333 6.75521 31.2031 7.17188C31.0729 7.58854 30.9818 8.05208 30.9297 8.5625C31.3151 8.28646 31.7266 8.05469 32.1641 7.86719C32.6068 7.67448 33.0833 7.57812 33.5938 7.57812C34.0677 7.57812 34.5182 7.65885 34.9453 7.82031C35.3724 7.97656 35.75 8.22396 36.0781 8.5625ZM35.6562 11.7969C35.6562 10.8698 35.4479 10.1589 35.0312 9.66406C34.6146 9.16927 34.0208 8.92188 33.25 8.92188C32.8281 8.92188 32.4193 8.99219 32.0234 9.13281C31.6276 9.27344 31.2552 9.46094 30.9062 9.69531C30.8958 9.82552 30.8854 9.98177 30.875 10.1641C30.8646 10.3411 30.8594 10.5026 30.8594 10.6484C30.8594 11.5547 30.9323 12.2917 31.0781 12.8594C31.224 13.4271 31.4271 13.8724 31.6875 14.1953C31.9219 14.487 32.1693 14.6901 32.4297 14.8047C32.6901 14.9141 32.974 14.9688 33.2812 14.9688C34.0312 14.9688 34.6146 14.6849 35.0312 14.1172C35.4479 13.5495 35.6562 12.776 35.6562 11.7969ZM46.0078 11.4062C46.0078 12.8594 45.6589 14.0182 44.9609 14.8828C44.2682 15.7422 43.3906 16.1719 42.3281 16.1719C41.8958 16.1719 41.513 16.1224 41.1797 16.0234C40.8464 15.9245 40.5052 15.7708 40.1562 15.5625V19.2188H38.6875V7.27344H40.1562V8.1875C40.5208 7.85938 40.9245 7.58594 41.3672 7.36719C41.8151 7.14323 42.3021 7.03125 42.8281 7.03125C43.8281 7.03125 44.6068 7.42708 45.1641 8.21875C45.7266 9.01042 46.0078 10.0729 46.0078 11.4062ZM44.4922 11.5703C44.4922 10.5755 44.3333 9.80469 44.0156 9.25781C43.6979 8.70573 43.1823 8.42969 42.4688 8.42969C42.0521 8.42969 41.6484 8.52344 41.2578 8.71094C40.8724 8.89323 40.5052 9.13021 40.1562 9.42188V14.3672C40.5417 14.5547 40.8698 14.6823 41.1406 14.75C41.4167 14.8177 41.7318 14.8516 42.0859 14.8516C42.8464 14.8516 43.4375 14.5729 43.8594 14.0156C44.2812 13.4583 44.4922 12.6432 44.4922 11.5703ZM54.7109 11.6406C54.7109 13.1094 54.3568 14.2448 53.6484 15.0469C52.9401 15.8438 51.9974 16.2422 50.8203 16.2422C49.6068 16.2422 48.651 15.8307 47.9531 15.0078C47.2604 14.1797 46.9141 13.0573 46.9141 11.6406C46.9141 10.1823 47.2708 9.04948 47.9844 8.24219C48.7031 7.4349 49.6484 7.03125 50.8203 7.03125C51.9974 7.03125 52.9401 7.4349 53.6484 8.24219C54.3568 9.04427 54.7109 10.1771 54.7109 11.6406ZM53.1953 11.6406C53.1953 10.5104 52.9896 9.67188 52.5781 9.125C52.1667 8.57292 51.5807 8.29688 50.8203 8.29688C50.0547 8.29688 49.4635 8.57292 49.0469 9.125C48.6354 9.67188 48.4297 10.5104 48.4297 11.6406C48.4297 12.7344 48.6354 13.5651 49.0469 14.1328C49.4635 14.6953 50.0547 14.9766 50.8203 14.9766C51.5755 14.9766 52.1589 14.7005 52.5703 14.1484C52.987 13.5911 53.1953 12.7552 53.1953 11.6406ZM62.4062 8.5625C62.7448 8.90625 63.0078 9.34375 63.1953 9.875C63.3828 10.401 63.4766 11.013 63.4766 11.7109C63.4766 12.3828 63.3698 13.0052 63.1562 13.5781C62.9427 14.1458 62.6536 14.625 62.2891 15.0156C61.9141 15.4219 61.4974 15.7292 61.0391 15.9375C60.5859 16.1406 60.0911 16.2422 59.5547 16.2422C59.0078 16.2422 58.5052 16.1484 58.0469 15.9609C57.5938 15.7682 57.2057 15.474 56.8828 15.0781C56.4818 14.5833 56.1797 13.9635 55.9766 13.2188C55.7786 12.474 55.6797 11.5521 55.6797 10.4531C55.6797 10.0625 55.6953 9.66667 55.7266 9.26562C55.763 8.85938 55.8385 8.375 55.9531 7.8125C56.0573 7.3125 56.1979 6.84896 56.375 6.42188C56.5521 5.98958 56.7839 5.625 57.0703 5.32812C57.4401 4.94271 57.9219 4.63542 58.5156 4.40625C59.1146 4.17708 59.9062 4.01823 60.8906 3.92969C61.2396 3.89844 61.612 3.86979 62.0078 3.84375C62.4089 3.8125 62.7135 3.78906 62.9219 3.77344V5.125C62.651 5.14062 62.362 5.16146 62.0547 5.1875C61.7474 5.20833 61.3958 5.23438 61 5.26562C60.474 5.30729 59.9245 5.40104 59.3516 5.54688C58.7786 5.6875 58.3464 5.90885 58.0547 6.21094C57.8359 6.4349 57.6615 6.75521 57.5312 7.17188C57.401 7.58854 57.3099 8.05208 57.2578 8.5625C57.6432 8.28646 58.0547 8.05469 58.4922 7.86719C58.9349 7.67448 59.4115 7.57812 59.9219 7.57812C60.3958 7.57812 60.8464 7.65885 61.2734 7.82031C61.7005 7.97656 62.0781 8.22396 62.4062 8.5625ZM61.9844 11.7969C61.9844 10.8698 61.776 10.1589 61.3594 9.66406C60.9427 9.16927 60.349 8.92188 59.5781 8.92188C59.1562 8.92188 58.7474 8.99219 58.3516 9.13281C57.9557 9.27344 57.5833 9.46094 57.2344 9.69531C57.224 9.82552 57.2135 9.98177 57.2031 10.1641C57.1927 10.3411 57.1875 10.5026 57.1875 10.6484C57.1875 11.5547 57.2604 12.2917 57.4062 12.8594C57.5521 13.4271 57.7552 13.8724 58.0156 14.1953C58.25 14.487 58.4974 14.6901 58.7578 14.8047C59.0182 14.9141 59.3021 14.9688 59.6094 14.9688C60.3594 14.9688 60.9427 14.6849 61.3594 14.1172C61.776 13.5495 61.9844 12.776 61.9844 11.7969ZM72.0391 16H70.2109L67.2188 11.9766H66.4844V16H65.0156V7.27344H66.4844V11.0703C66.8646 11.0651 67.1875 10.987 67.4531 10.8359C67.724 10.6797 67.9531 10.3802 68.1406 9.9375C68.1979 9.80729 68.2604 9.65625 68.3281 9.48438C68.401 9.3125 68.4583 9.16146 68.5 9.03125C68.7292 8.39062 69.0469 7.9375 69.4531 7.67188C69.8594 7.40625 70.388 7.27344 71.0391 7.27344H71.4375V8.53906H71.1016C70.6901 8.53906 70.3802 8.625 70.1719 8.79688C69.9688 8.96354 69.7969 9.27083 69.6562 9.71875C69.5104 10.1719 69.3385 10.526 69.1406 10.7812C68.9427 11.0312 68.724 11.224 68.4844 11.3594L72.0391 16ZM77.8594 13.8516V11.4297C77.5104 11.4609 77.0677 11.5052 76.5312 11.5625C76 11.6146 75.5703 11.6901 75.2422 11.7891C74.8516 11.9089 74.5286 12.0938 74.2734 12.3438C74.0182 12.5885 73.8906 12.9323 73.8906 13.375C73.8906 13.875 74.0312 14.2526 74.3125 14.5078C74.5938 14.763 75.0052 14.8906 75.5469 14.8906C76.0104 14.8906 76.4297 14.7917 76.8047 14.5938C77.1797 14.3906 77.5312 14.1432 77.8594 13.8516ZM77.8594 15.0703C77.7396 15.1589 77.5781 15.2839 77.375 15.4453C77.1771 15.6016 76.9844 15.7266 76.7969 15.8203C76.5365 15.9557 76.2839 16.0599 76.0391 16.1328C75.7995 16.2057 75.4609 16.2422 75.0234 16.2422C74.6641 16.2422 74.3229 16.1745 74 16.0391C73.6771 15.9036 73.3932 15.7135 73.1484 15.4688C72.9141 15.2292 72.7266 14.9349 72.5859 14.5859C72.4453 14.2318 72.375 13.8594 72.375 13.4688C72.375 12.8646 72.5026 12.3516 72.7578 11.9297C73.013 11.5026 73.4167 11.1641 73.9688 10.9141C74.4583 10.6901 75.0365 10.5365 75.7031 10.4531C76.3698 10.3646 77.0885 10.2995 77.8594 10.2578V9.97656C77.8594 9.63281 77.8073 9.35677 77.7031 9.14844C77.599 8.9349 77.4531 8.77083 77.2656 8.65625C77.0781 8.53646 76.849 8.45833 76.5781 8.42188C76.3073 8.38021 76.0286 8.35938 75.7422 8.35938C75.4036 8.35938 75.0052 8.41146 74.5469 8.51562C74.0885 8.61458 73.6302 8.76042 73.1719 8.95312H73.0859V7.46094C73.3568 7.38281 73.7448 7.29688 74.25 7.20312C74.7552 7.10938 75.2552 7.0625 75.75 7.0625C76.349 7.0625 76.8542 7.10938 77.2656 7.20312C77.6771 7.29688 78.0469 7.46615 78.375 7.71094C78.6927 7.95052 78.9297 8.26042 79.0859 8.64062C79.2422 9.02083 79.3203 9.48438 79.3203 10.0312V16H77.8594V15.0703Z" fill="#FF6B00"/>
</svg>
