<svg viewBox="0 0 100 20" fill="none" xmlns="http://www.w3.org/2000/svg">
	<rect width="100" height="20" rx="5" fill="#FFF5C1"/>
	<path d="M17.625 16H16.0781V5.74219H10.7266V16H9.17969V4.36719H17.625V16ZM27.1953 11.4062C27.1953 12.8594 26.8464 14.0182 26.1484 14.8828C25.4557 15.7422 24.5781 16.1719 23.5156 16.1719C23.0833 16.1719 22.7005 16.1224 22.3672 16.0234C22.0339 15.9245 21.6927 15.7708 21.3438 15.5625V19.2188H19.875V7.27344H21.3438V8.1875C21.7083 7.85938 22.112 7.58594 22.5547 7.36719C23.0026 7.14323 23.4896 7.03125 24.0156 7.03125C25.0156 7.03125 25.7943 7.42708 26.3516 8.21875C26.9141 9.01042 27.1953 10.0729 27.1953 11.4062ZM25.6797 11.5703C25.6797 10.5755 25.5208 9.80469 25.2031 9.25781C24.8854 8.70573 24.3698 8.42969 23.6562 8.42969C23.2396 8.42969 22.8359 8.52344 22.4453 8.71094C22.0599 8.89323 21.6927 9.13021 21.3438 9.42188V14.3672C21.7292 14.5547 22.0573 14.6823 22.3281 14.75C22.6042 14.8177 22.9193 14.8516 23.2734 14.8516C24.0339 14.8516 24.625 14.5729 25.0469 14.0156C25.4688 13.4583 25.6797 12.6432 25.6797 11.5703ZM35.8984 11.6406C35.8984 13.1094 35.5443 14.2448 34.8359 15.0469C34.1276 15.8438 33.1849 16.2422 32.0078 16.2422C30.7943 16.2422 29.8385 15.8307 29.1406 15.0078C28.4479 14.1797 28.1016 13.0573 28.1016 11.6406C28.1016 10.1823 28.4583 9.04948 29.1719 8.24219C29.8906 7.4349 30.8359 7.03125 32.0078 7.03125C33.1849 7.03125 34.1276 7.4349 34.8359 8.24219C35.5443 9.04427 35.8984 10.1771 35.8984 11.6406ZM34.3828 11.6406C34.3828 10.5104 34.1771 9.67188 33.7656 9.125C33.3542 8.57292 32.7682 8.29688 32.0078 8.29688C31.2422 8.29688 30.651 8.57292 30.2344 9.125C29.8229 9.67188 29.6172 10.5104 29.6172 11.6406C29.6172 12.7344 29.8229 13.5651 30.2344 14.1328C30.651 14.6953 31.2422 14.9766 32.0078 14.9766C32.763 14.9766 33.3464 14.7005 33.7578 14.1484C34.1745 13.5911 34.3828 12.7552 34.3828 11.6406ZM44.2969 16H42.8281V8.53906H38.875V16H37.4062V7.27344H44.2969V16ZM53.6016 11.6406C53.6016 13.1094 53.2474 14.2448 52.5391 15.0469C51.8307 15.8438 50.888 16.2422 49.7109 16.2422C48.4974 16.2422 47.5417 15.8307 46.8438 15.0078C46.151 14.1797 45.8047 13.0573 45.8047 11.6406C45.8047 10.1823 46.1615 9.04948 46.875 8.24219C47.5938 7.4349 48.5391 7.03125 49.7109 7.03125C50.888 7.03125 51.8307 7.4349 52.5391 8.24219C53.2474 9.04427 53.6016 10.1771 53.6016 11.6406ZM52.0859 11.6406C52.0859 10.5104 51.8802 9.67188 51.4688 9.125C51.0573 8.57292 50.4714 8.29688 49.7109 8.29688C48.9453 8.29688 48.3542 8.57292 47.9375 9.125C47.526 9.67188 47.3203 10.5104 47.3203 11.6406C47.3203 12.7344 47.526 13.5651 47.9375 14.1328C48.3542 14.6953 48.9453 14.9766 49.7109 14.9766C50.4661 14.9766 51.0495 14.7005 51.4609 14.1484C51.8776 13.5911 52.0859 12.7552 52.0859 11.6406ZM60.8906 13.5859C60.8906 14.0755 60.7839 14.4896 60.5703 14.8281C60.3568 15.1667 60.0833 15.4349 59.75 15.6328C59.4323 15.8255 59.0703 15.9688 58.6641 16.0625C58.2578 16.1562 57.8516 16.2031 57.4453 16.2031C56.8724 16.2031 56.3307 16.1458 55.8203 16.0312C55.3099 15.9219 54.8021 15.7448 54.2969 15.5V13.875H54.3906C54.7448 14.2031 55.1875 14.4635 55.7188 14.6562C56.2552 14.8438 56.7891 14.9375 57.3203 14.9375C57.5495 14.9375 57.7943 14.9141 58.0547 14.8672C58.3203 14.8151 58.5443 14.737 58.7266 14.6328C58.9661 14.487 59.1354 14.3307 59.2344 14.1641C59.3385 13.9974 59.3906 13.7682 59.3906 13.4766C59.3906 13.1641 59.3307 12.9141 59.2109 12.7266C59.0964 12.5339 58.9375 12.3906 58.7344 12.2969C58.5312 12.2031 58.3021 12.1458 58.0469 12.125C57.7969 12.099 57.5312 12.0859 57.25 12.0859H56.2188V10.8203H57.0078C57.2057 10.8203 57.4531 10.8151 57.75 10.8047C58.0469 10.7891 58.2839 10.7474 58.4609 10.6797C58.6849 10.5964 58.8646 10.4792 59 10.3281C59.1354 10.1719 59.2031 9.91146 59.2031 9.54688C59.2031 9.29167 59.1458 9.08594 59.0312 8.92969C58.9167 8.77344 58.7734 8.65104 58.6016 8.5625C58.4245 8.46875 58.2318 8.40625 58.0234 8.375C57.8151 8.33854 57.6146 8.32031 57.4219 8.32031C56.9271 8.32031 56.4505 8.39062 55.9922 8.53125C55.5391 8.66667 55.1484 8.86979 54.8203 9.14062H54.7266V7.55469C55.1016 7.42448 55.5156 7.3099 55.9688 7.21094C56.4271 7.11198 56.8854 7.0625 57.3438 7.0625C57.7135 7.0625 58.0885 7.10156 58.4688 7.17969C58.8542 7.2526 59.2188 7.38021 59.5625 7.5625C59.8854 7.73958 60.1562 7.98438 60.375 8.29688C60.5938 8.60417 60.7031 8.98177 60.7031 9.42969C60.7031 9.90365 60.5677 10.3203 60.2969 10.6797C60.0312 11.0339 59.6771 11.2682 59.2344 11.3828V11.4375C59.7188 11.6042 60.1146 11.8594 60.4219 12.2031C60.7344 12.5469 60.8906 13.0078 60.8906 13.5859ZM69.3281 16H67.875V9.49219L63.7656 16H62.4375V7.27344H63.8906V13.6797L67.9531 7.27344H69.3281V16ZM79.1562 18.0938H77.7891V16H71.4531V7.27344H72.9219V14.7344H76.8203V7.27344H78.2891V14.7344H79.1562V18.0938ZM82.1094 16H80.6406V7.27344H82.1094V16ZM82.2109 5.8125H80.5391V4.28906H82.2109V5.8125ZM90.5859 16H89.1172V12.5391H87.6641L85.0781 16H83.3672L86.1719 12.4062C85.4479 12.1927 84.9167 11.875 84.5781 11.4531C84.2448 11.0312 84.0781 10.4661 84.0781 9.75781C84.0781 9.32552 84.1719 8.94792 84.3594 8.625C84.5521 8.29688 84.8099 8.02083 85.1328 7.79688C85.3932 7.61979 85.7214 7.48958 86.1172 7.40625C86.513 7.31771 86.9557 7.27344 87.4453 7.27344H90.5859V16ZM89.1172 11.3828V8.44531H87.5234C87.1849 8.44531 86.9167 8.46354 86.7188 8.5C86.526 8.53646 86.3385 8.60677 86.1562 8.71094C85.9688 8.82552 85.8255 8.98177 85.7266 9.17969C85.6328 9.3724 85.5859 9.58073 85.5859 9.80469C85.5859 10.0911 85.6172 10.3255 85.6797 10.5078C85.7474 10.6849 85.8672 10.849 86.0391 11C86.2214 11.1562 86.4427 11.2604 86.7031 11.3125C86.9688 11.3594 87.2578 11.3828 87.5703 11.3828H89.1172Z" fill="#FAD200"/>
</svg>
